<svg width="25" height="19" viewBox="0 0 25 19" fill="none" xmlns="http://www.w3.org/2000/svg">
<path d="M24.5117 6.45117C23.3887 7.33008 21.9727 8.4043 16.9922 12.0176C16.0156 12.75 14.209 14.3613 12.5 14.3613C10.7422 14.3613 8.98438 12.75 7.95898 12.0176C2.97852 8.4043 1.5625 7.33008 0.439453 6.45117C0.244141 6.30469 0 6.45117 0 6.69531V16.6562C0 17.9746 1.02539 19 2.34375 19H22.6562C23.9258 19 25 17.9746 25 16.6562V6.69531C25 6.45117 24.707 6.30469 24.5117 6.45117ZM12.5 12.75C13.623 12.7988 15.2344 11.334 16.0645 10.748C22.5586 6.06055 23.0469 5.62109 24.5117 4.44922C24.8047 4.25391 25 3.91211 25 3.52148V2.59375C25 1.32422 23.9258 0.25 22.6562 0.25H2.34375C1.02539 0.25 0 1.32422 0 2.59375V3.52148C0 3.91211 0.146484 4.25391 0.439453 4.44922C1.9043 5.62109 2.39258 6.06055 8.88672 10.748C9.7168 11.334 11.3281 12.7988 12.5 12.75Z" fill="#FFC837"/>
</svg>
