<svg width="45" height="41" viewBox="0 0 45 41" fill="none" xmlns="http://www.w3.org/2000/svg">
<path d="M5.81677 6.16601C9.53268 2.45253 15.5789 2.45253 19.2985 6.16601C19.9998 6.87218 20.5866 7.6757 21.0408 8.55233L22.3764 11.1579L23.7413 8.5767C24.1845 7.7366 24.753 6.95736 25.4349 6.27555C29.1532 2.56207 35.2007 2.56207 38.9166 6.27555C42.5862 9.9525 42.624 15.9549 39.0018 19.6684L22.4215 36.2512L5.96041 19.7901L5.73153 19.5589C2.10937 15.8454 2.14712 9.83078 5.81677 6.16601ZM2.67915 20.825L22.4215 40.5613L41.801 21.1781L41.7863 21.1294C45.9466 16.1984 45.6971 8.74712 41.0692 4.12049C36.1638 -0.773997 28.1853 -0.773997 23.2822 4.12049C22.9742 4.43705 22.6833 4.75366 22.4118 5.09457C22.111 4.71714 21.7908 4.35186 21.4499 4.01095C16.5468 -0.883533 8.56838 -0.883533 3.66416 4.01095C-0.880893 8.56453 -1.20355 15.821 2.72909 20.752L2.67915 20.825Z" fill="#FFC837"/>
</svg>
