<svg width="641" height="400" viewBox="0 0 641 400" fill="none" xmlns="http://www.w3.org/2000/svg">
<path d="M0 0H641V400H0V0Z" fill="#2A2C31" fill-opacity="0.2"/>
<path d="M534.77 243.503C534.77 241.319 536.541 239.548 538.725 239.548H573.066C575.25 239.548 577.021 241.319 577.021 243.503C577.021 245.687 575.25 247.458 573.066 247.458H538.725C536.541 247.458 534.77 245.687 534.77 243.503Z" fill="#2A2C31" fill-opacity="0.2"/>
<path d="M469.602 247.295C468.506 248.285 467.417 249.276 466.366 250.252C466.155 250.461 465.943 250.643 465.728 250.838C464.161 248.592 462.335 246.485 460.28 244.56C458.223 242.649 455.976 240.934 453.575 239.469C453.78 239.26 453.989 239.064 454.201 238.869C455.077 238.046 455.955 237.209 456.836 236.358C464.593 228.937 471.933 221.92 481.997 224.305C484.965 233.414 477.496 240.166 469.602 247.295ZM468.797 258.664L467.38 254.158C467.924 253.684 468.469 253.223 469 252.721C469.854 251.926 470.739 251.131 471.626 250.322C472.174 253.684 470.374 256.725 468.797 258.664ZM450.037 237.92L445.245 236.595C447.318 235.13 450.576 233.456 454.143 233.958C453.28 234.781 452.423 235.604 451.566 236.4C451.037 236.902 450.541 237.418 450.037 237.92ZM484.882 221.473L484.001 221.208C472.839 217.986 464.459 224.319 457.144 231.113C448.093 227.946 440.463 235.884 440.126 236.246L438.198 238.297L449.985 241.547L449.997 241.505C452.764 243.026 455.338 244.881 457.645 247.03C459.949 249.192 461.931 251.605 463.552 254.186L463.512 254.2L466.979 265.234L469.172 263.435C469.553 263.114 478.01 256 474.673 247.546C482.144 240.655 489.292 232.773 485.198 222.282L484.882 221.473Z" fill="#2A2C31" fill-opacity="0.2"/>
<path d="M453.238 254.479C452.639 254.828 450.302 255.553 447.722 256.251C448.475 254.2 449.354 251.912 449.815 251.047C449.861 250.963 449.964 250.768 450.429 250.698C451.211 250.573 452.297 250.936 452.908 251.508C453.484 252.038 453.825 252.917 453.737 253.642C453.664 254.228 453.344 254.423 453.238 254.479ZM457.438 254.033C457.655 252.247 456.929 250.336 455.543 249.038C454.084 247.671 451.783 246.96 449.829 247.253C448.312 247.49 447.125 248.285 446.479 249.499C445.482 251.368 443.315 257.562 443.072 258.259L442.017 261.3L445.314 260.491C446.654 260.17 453.433 258.483 455.214 257.436C456.47 256.697 457.26 255.497 457.438 254.033Z" fill="#2A2C31" fill-opacity="0.2"/>
<path d="M347.661 242.373C347.661 240.189 349.431 238.418 351.616 238.418H385.957C388.141 238.418 389.911 240.189 389.911 242.373C389.911 244.557 388.141 246.328 385.957 246.328H351.616C349.431 246.328 347.661 244.557 347.661 242.373Z" fill="#2A2C31" fill-opacity="0.2"/>
<path d="M282.493 246.165C281.397 247.155 280.308 248.146 279.257 249.122C279.045 249.331 278.834 249.513 278.619 249.708C277.051 247.462 275.226 245.355 273.171 243.43C271.114 241.519 268.867 239.804 266.466 238.339C266.671 238.13 266.88 237.934 267.092 237.739C267.968 236.916 268.846 236.079 269.727 235.228C277.484 227.807 284.824 220.79 294.888 223.175C297.856 232.284 290.387 239.036 282.493 246.165ZM281.688 257.534L280.271 253.028C280.815 252.554 281.36 252.093 281.891 251.591C282.745 250.796 283.63 250.001 284.516 249.192C285.065 252.554 283.265 255.595 281.688 257.534ZM262.928 236.79L258.136 235.465C260.209 234 263.467 232.326 267.034 232.828C266.171 233.651 265.314 234.474 264.457 235.27C263.928 235.772 263.431 236.288 262.928 236.79ZM297.773 220.343L296.892 220.078C285.73 216.856 277.35 223.189 270.035 229.983C260.984 226.816 253.354 234.754 253.017 235.116L251.089 237.167L262.876 240.417L262.887 240.375C265.655 241.896 268.229 243.751 270.536 245.9C272.84 248.062 274.822 250.475 276.443 253.056L276.403 253.07L279.87 264.104L282.063 262.305C282.443 261.984 290.901 254.87 287.564 246.416C295.035 239.525 302.183 231.643 298.089 221.152L297.773 220.343Z" fill="#2A2C31" fill-opacity="0.2"/>
<path d="M266.129 253.349C265.53 253.698 263.193 254.423 260.613 255.121C261.366 253.07 262.245 250.782 262.705 249.917C262.752 249.833 262.854 249.638 263.319 249.568C264.102 249.443 265.188 249.806 265.799 250.378C266.375 250.908 266.716 251.787 266.628 252.512C266.555 253.098 266.234 253.293 266.129 253.349ZM270.328 252.903C270.546 251.117 269.82 249.206 268.434 247.908C266.975 246.541 264.674 245.83 262.72 246.123C261.203 246.36 260.015 247.155 259.37 248.369C258.373 250.238 256.206 256.432 255.963 257.129L254.908 260.17L258.205 259.361C259.544 259.04 266.324 257.353 268.105 256.306C269.361 255.567 270.151 254.367 270.328 252.903Z" fill="#2A2C31" fill-opacity="0.2"/>
<path d="M160.552 242.373C160.552 240.189 162.322 238.418 164.507 238.418H198.847C201.032 238.418 202.802 240.189 202.802 242.373C202.802 244.557 201.032 246.328 198.847 246.328H164.507C162.322 246.328 160.552 244.557 160.552 242.373Z" fill="#2A2C31" fill-opacity="0.2"/>
<path d="M95.3835 246.165C94.2881 247.155 93.1987 248.146 92.148 249.122C91.9364 249.331 91.7248 249.513 91.5102 249.708C89.9424 247.462 88.1167 245.355 86.0616 243.43C84.0049 241.519 81.7575 239.804 79.3566 238.339C79.5623 238.13 79.771 237.934 79.9826 237.739C80.8589 236.916 81.7366 236.079 82.6174 235.228C90.3745 227.807 97.7144 220.79 107.779 223.175C110.747 232.284 103.278 239.036 95.3835 246.165ZM94.5787 257.534L93.1614 253.028C93.7054 252.554 94.2509 252.093 94.7815 251.591C95.6354 250.796 96.5206 250.001 97.4073 249.192C97.9558 252.554 96.1555 255.595 94.5787 257.534ZM75.8186 236.79L71.0272 235.465C73.1003 234 76.3582 232.326 79.9245 232.828C79.0616 233.651 78.2047 234.474 77.3477 235.27C76.8187 235.772 76.3224 236.288 75.8186 236.79ZM110.664 220.343L109.783 220.078C98.6205 216.856 90.2404 223.189 82.9259 229.983C73.8753 226.816 66.2448 234.754 65.908 235.116L63.9795 237.167L75.7664 240.417L75.7784 240.375C78.5459 241.896 81.1197 243.751 83.4267 245.9C85.7307 248.062 87.7128 250.475 89.3343 253.056L89.2941 253.07L92.7606 264.104L94.9543 262.305C95.3343 261.984 103.792 254.87 100.455 246.416C107.926 239.525 115.074 231.643 110.98 221.152L110.664 220.343Z" fill="#2A2C31" fill-opacity="0.2"/>
<path d="M79.0196 253.349C78.4205 253.698 76.0837 254.423 73.504 255.121C74.2566 253.07 75.1358 250.782 75.5963 249.917C75.6425 249.833 75.7454 249.638 76.2103 249.568C76.9928 249.443 78.0792 249.806 78.6902 250.378C79.2655 250.908 79.6068 251.787 79.5189 252.512C79.4459 253.098 79.1254 253.293 79.0196 253.349ZM83.2193 252.903C83.4369 251.117 82.7111 249.206 81.3251 247.908C79.8661 246.541 77.5651 245.83 75.6113 246.123C74.0941 246.36 72.9064 247.155 72.261 248.369C71.264 250.238 69.0971 256.432 68.8542 257.129L67.799 260.17L71.0956 259.361C72.4354 259.04 79.2148 257.353 80.9957 256.306C82.2521 255.567 83.042 254.367 83.2193 252.903Z" fill="#2A2C31" fill-opacity="0.2"/>
<path d="M560.138 155.769C559.043 156.76 557.954 157.75 556.903 158.727C556.691 158.936 556.48 159.117 556.265 159.312C554.697 157.066 552.872 154.96 550.817 153.035C548.76 151.124 546.512 149.408 544.112 147.943C544.317 147.734 544.526 147.539 544.738 147.343C545.614 146.52 546.492 145.684 547.372 144.833C555.129 137.411 562.469 130.394 572.533 132.78C575.502 141.889 568.033 148.641 560.138 155.769ZM559.334 167.138L557.916 162.633C558.46 162.158 559.006 161.698 559.536 161.196C560.39 160.401 561.276 159.606 562.162 158.796C562.711 162.158 560.91 165.199 559.334 167.138ZM540.574 146.395L535.782 145.07C537.855 143.605 541.113 141.931 544.679 142.433C543.817 143.256 542.96 144.079 542.103 144.874C541.574 145.376 541.077 145.893 540.574 146.395ZM575.419 129.948L574.538 129.683C563.375 126.46 554.995 132.794 547.681 139.587C538.63 136.421 531 144.358 530.663 144.721L528.734 146.771L540.521 150.022L540.533 149.98C543.301 151.501 545.875 153.356 548.182 155.504C550.486 157.666 552.468 160.08 554.089 162.66L554.049 162.674L557.516 173.709L559.709 171.909C560.089 171.588 568.547 164.474 565.21 156.02C572.681 149.129 579.828 141.247 575.735 130.757L575.419 129.948Z" fill="#2A2C31" fill-opacity="0.2"/>
<path d="M543.775 162.954C543.175 163.302 540.839 164.028 538.259 164.725C539.012 162.675 539.891 160.387 540.351 159.522C540.398 159.438 540.5 159.243 540.965 159.173C541.748 159.047 542.834 159.41 543.445 159.982C544.02 160.512 544.362 161.391 544.274 162.117C544.201 162.702 543.88 162.898 543.775 162.954ZM547.974 162.507C548.192 160.722 547.466 158.81 546.08 157.513C544.621 156.146 542.32 155.434 540.366 155.727C538.849 155.965 537.661 156.76 537.016 157.973C536.019 159.843 533.852 166.037 533.609 166.734L532.554 169.775L535.851 168.966C537.19 168.645 543.97 166.957 545.751 165.911C547.007 165.172 547.797 163.972 547.974 162.507Z" fill="#2A2C31" fill-opacity="0.2"/>
<path d="M441.819 151.977C441.819 149.793 443.59 148.023 445.774 148.023H480.115C482.299 148.023 484.07 149.793 484.07 151.977C484.07 154.162 482.299 155.932 480.115 155.932H445.774C443.59 155.932 441.819 154.162 441.819 151.977Z" fill="#2A2C31" fill-opacity="0.2"/>
<path d="M374.236 154.639C373.141 155.63 372.052 156.62 371.001 157.597C370.789 157.806 370.578 157.987 370.363 158.182C368.795 155.936 366.97 153.83 364.915 151.905C362.858 149.994 360.61 148.278 358.21 146.813C358.415 146.604 358.624 146.409 358.836 146.213C359.712 145.39 360.59 144.554 361.47 143.703C369.227 136.281 376.567 129.264 386.631 131.65C389.6 140.759 382.131 147.511 374.236 154.639ZM373.432 166.008L372.014 161.503C372.558 161.028 373.104 160.568 373.634 160.066C374.488 159.271 375.374 158.476 376.26 157.666C376.809 161.028 375.008 164.069 373.432 166.008ZM354.672 145.265L349.88 143.94C351.953 142.475 355.211 140.801 358.777 141.303C357.915 142.126 357.058 142.949 356.201 143.744C355.672 144.246 355.175 144.763 354.672 145.265ZM389.517 128.818L388.636 128.553C377.473 125.33 369.093 131.664 361.779 138.457C352.728 135.291 345.098 143.228 344.761 143.591L342.832 145.641L354.619 148.892L354.631 148.85C357.399 150.371 359.973 152.226 362.28 154.374C364.584 156.536 366.566 158.95 368.187 161.53L368.147 161.544L371.613 172.579L373.807 170.779C374.187 170.458 382.645 163.344 379.308 154.89C386.779 147.999 393.926 140.117 389.833 129.627L389.517 128.818Z" fill="#2A2C31" fill-opacity="0.2"/>
<path d="M357.873 161.824C357.273 162.172 354.937 162.898 352.357 163.595C353.11 161.545 353.989 159.257 354.449 158.392C354.495 158.308 354.598 158.113 355.063 158.043C355.846 157.917 356.932 158.28 357.543 158.852C358.118 159.382 358.46 160.261 358.372 160.987C358.299 161.572 357.978 161.768 357.873 161.824ZM362.072 161.377C362.29 159.592 361.564 157.68 360.178 156.383C358.719 155.016 356.418 154.304 354.464 154.597C352.947 154.835 351.759 155.63 351.114 156.843C350.117 158.713 347.95 164.907 347.707 165.604L346.652 168.645L349.948 167.836C351.288 167.515 358.068 165.827 359.849 164.781C361.105 164.042 361.895 162.842 362.072 161.377Z" fill="#2A2C31" fill-opacity="0.2"/>
<path d="M254.71 150.847C254.71 148.663 256.48 146.893 258.665 146.893H293.005C295.19 146.893 296.96 148.663 296.96 150.847C296.96 153.032 295.19 154.802 293.005 154.802H258.665C256.48 154.802 254.71 153.032 254.71 150.847Z" fill="#2A2C31" fill-opacity="0.2"/>
<path d="M188.334 154.639C187.239 155.63 186.15 156.62 185.099 157.597C184.887 157.806 184.676 157.987 184.461 158.182C182.893 155.936 181.068 153.83 179.013 151.905C176.956 149.994 174.708 148.278 172.308 146.813C172.513 146.604 172.722 146.409 172.934 146.213C173.81 145.39 174.688 144.554 175.568 143.703C183.325 136.281 190.665 129.264 200.729 131.65C203.698 140.759 196.229 147.511 188.334 154.639ZM187.53 166.008L186.112 161.503C186.656 161.028 187.202 160.568 187.732 160.066C188.586 159.271 189.472 158.476 190.358 157.666C190.907 161.028 189.106 164.069 187.53 166.008ZM168.77 145.265L163.978 143.94C166.051 142.475 169.309 140.801 172.875 141.303C172.013 142.126 171.156 142.949 170.299 143.744C169.77 144.246 169.273 144.763 168.77 145.265ZM203.615 128.818L202.734 128.553C191.571 125.33 183.191 131.664 175.877 138.457C166.826 135.291 159.196 143.228 158.859 143.591L156.93 145.641L168.717 148.892L168.729 148.85C171.497 150.371 174.071 152.226 176.378 154.374C178.682 156.536 180.664 158.95 182.285 161.53L182.245 161.544L185.712 172.579L187.905 170.779C188.285 170.458 196.743 163.344 193.406 154.89C200.877 147.999 208.025 140.117 203.931 129.627L203.615 128.818Z" fill="#2A2C31" fill-opacity="0.2"/>
<path d="M171.971 161.824C171.371 162.172 169.035 162.898 166.455 163.595C167.208 161.545 168.087 159.257 168.547 158.392C168.593 158.308 168.696 158.113 169.161 158.043C169.944 157.917 171.03 158.28 171.641 158.852C172.216 159.382 172.558 160.261 172.47 160.987C172.397 161.572 172.076 161.768 171.971 161.824ZM176.17 161.377C176.388 159.592 175.662 157.68 174.276 156.383C172.817 155.016 170.516 154.304 168.562 154.597C167.045 154.835 165.857 155.63 165.212 156.843C164.215 158.713 162.048 164.907 161.805 165.604L160.75 168.645L164.047 167.836C165.386 167.515 172.166 165.827 173.947 164.781C175.203 164.042 175.993 162.842 176.17 161.377Z" fill="#2A2C31" fill-opacity="0.2"/>
<path d="M67.6008 150.847C67.6008 148.663 69.3714 146.893 71.5556 146.893H105.896C108.081 146.893 109.851 148.663 109.851 150.847C109.851 153.032 108.081 154.802 105.896 154.802H71.5556C69.3714 154.802 67.6008 153.032 67.6008 150.847Z" fill="#2A2C31" fill-opacity="0.2"/>
<path d="M560.138 338.82C559.043 339.81 557.954 340.801 556.903 341.777C556.691 341.987 556.48 342.168 556.265 342.363C554.697 340.117 552.872 338.011 550.817 336.086C548.76 334.175 546.512 332.459 544.112 330.994C544.317 330.785 544.526 330.589 544.738 330.394C545.614 329.571 546.492 328.734 547.372 327.883C555.129 320.462 562.469 313.445 572.533 315.83C575.502 324.94 568.033 331.691 560.138 338.82ZM559.334 350.189L557.916 345.683C558.46 345.209 559.006 344.749 559.536 344.247C560.39 343.451 561.276 342.656 562.162 341.847C562.711 345.209 560.91 348.25 559.334 350.189ZM540.574 329.446L535.782 328.12C537.855 326.656 541.113 324.981 544.679 325.484C543.817 326.307 542.96 327.13 542.103 327.925C541.574 328.427 541.077 328.943 540.574 329.446ZM575.419 312.999L574.538 312.734C563.375 309.511 554.995 315.845 547.681 322.638C538.63 319.472 531 327.409 530.663 327.772L528.734 329.822L540.521 333.073L540.533 333.031C543.301 334.551 545.875 336.407 548.182 338.555C550.486 340.717 552.468 343.13 554.089 345.711L554.049 345.725L557.516 356.76L559.709 354.96C560.089 354.639 568.547 347.525 565.21 339.071C572.681 332.18 579.828 324.298 575.735 313.808L575.419 312.999Z" fill="#2A2C31" fill-opacity="0.2"/>
<path d="M543.775 346.004C543.175 346.353 540.839 347.079 538.259 347.776C539.012 345.725 539.891 343.437 540.351 342.573C540.398 342.489 540.5 342.294 540.965 342.224C541.748 342.098 542.834 342.461 543.445 343.033C544.02 343.563 544.362 344.442 544.274 345.167C544.201 345.753 543.88 345.949 543.775 346.004ZM547.974 345.558C548.192 343.772 547.466 341.861 546.08 340.564C544.621 339.197 542.32 338.485 540.366 338.778C538.849 339.015 537.661 339.811 537.016 341.024C536.019 342.894 533.852 349.087 533.609 349.785L532.554 352.826L535.851 352.017C537.19 351.696 543.97 350.008 545.751 348.962C547.007 348.222 547.797 347.023 547.974 345.558Z" fill="#2A2C31" fill-opacity="0.2"/>
<path d="M441.819 335.028C441.819 332.844 443.59 331.073 445.774 331.073H480.115C482.299 331.073 484.07 332.844 484.07 335.028C484.07 337.212 482.299 338.983 480.115 338.983H445.774C443.59 338.983 441.819 337.212 441.819 335.028Z" fill="#2A2C31" fill-opacity="0.2"/>
<path d="M374.236 337.69C373.141 338.68 372.052 339.671 371.001 340.647C370.789 340.857 370.578 341.038 370.363 341.233C368.795 338.987 366.97 336.881 364.915 334.956C362.858 333.045 360.61 331.329 358.21 329.864C358.415 329.655 358.624 329.459 358.836 329.264C359.712 328.441 360.59 327.604 361.47 326.753C369.227 319.332 376.567 312.315 386.631 314.7C389.6 323.81 382.131 330.561 374.236 337.69ZM373.432 349.059L372.014 344.553C372.558 344.079 373.104 343.619 373.634 343.117C374.488 342.321 375.374 341.526 376.26 340.717C376.809 344.079 375.008 347.12 373.432 349.059ZM354.672 328.316L349.88 326.99C351.953 325.526 355.211 323.851 358.777 324.354C357.915 325.177 357.058 326 356.201 326.795C355.672 327.297 355.175 327.813 354.672 328.316ZM389.517 311.869L388.636 311.604C377.473 308.381 369.093 314.715 361.779 321.508C352.728 318.342 345.098 326.279 344.761 326.642L342.832 328.692L354.619 331.943L354.631 331.901C357.399 333.421 359.973 335.277 362.28 337.425C364.584 339.587 366.566 342 368.187 344.581L368.147 344.595L371.613 355.63L373.807 353.83C374.187 353.509 382.645 346.395 379.308 337.941C386.779 331.05 393.926 323.168 389.833 312.678L389.517 311.869Z" fill="#2A2C31" fill-opacity="0.2"/>
<path d="M357.873 344.874C357.273 345.223 354.937 345.949 352.357 346.646C353.11 344.595 353.989 342.307 354.449 341.443C354.495 341.359 354.598 341.164 355.063 341.094C355.846 340.968 356.932 341.331 357.543 341.903C358.118 342.433 358.46 343.312 358.372 344.037C358.299 344.623 357.978 344.819 357.873 344.874ZM362.072 344.428C362.29 342.642 361.564 340.731 360.178 339.434C358.719 338.067 356.418 337.355 354.464 337.648C352.947 337.885 351.759 338.681 351.114 339.894C350.117 341.764 347.95 347.957 347.707 348.655L346.652 351.696L349.948 350.887C351.288 350.566 358.068 348.878 359.849 347.832C361.105 347.092 361.895 345.893 362.072 344.428Z" fill="#2A2C31" fill-opacity="0.2"/>
<path d="M254.71 333.898C254.71 331.714 256.48 329.944 258.665 329.944H293.005C295.19 329.944 296.96 331.714 296.96 333.898C296.96 336.083 295.19 337.853 293.005 337.853H258.665C256.48 337.853 254.71 336.083 254.71 333.898Z" fill="#2A2C31" fill-opacity="0.2"/>
<path d="M188.334 337.69C187.239 338.68 186.15 339.671 185.099 340.647C184.887 340.857 184.676 341.038 184.461 341.233C182.893 338.987 181.068 336.881 179.013 334.956C176.956 333.045 174.708 331.329 172.308 329.864C172.513 329.655 172.722 329.459 172.934 329.264C173.81 328.441 174.688 327.604 175.568 326.753C183.325 319.332 190.665 312.315 200.729 314.7C203.698 323.81 196.229 330.561 188.334 337.69ZM187.53 349.059L186.112 344.553C186.656 344.079 187.202 343.619 187.732 343.117C188.586 342.321 189.472 341.526 190.358 340.717C190.907 344.079 189.106 347.12 187.53 349.059ZM168.77 328.316L163.978 326.99C166.051 325.526 169.309 323.851 172.875 324.354C172.013 325.177 171.156 326 170.299 326.795C169.77 327.297 169.273 327.813 168.77 328.316ZM203.615 311.869L202.734 311.604C191.571 308.381 183.191 314.715 175.877 321.508C166.826 318.342 159.196 326.279 158.859 326.642L156.93 328.692L168.717 331.943L168.729 331.901C171.497 333.421 174.071 335.277 176.378 337.425C178.682 339.587 180.664 342 182.285 344.581L182.245 344.595L185.712 355.63L187.905 353.83C188.285 353.509 196.743 346.395 193.406 337.941C200.877 331.05 208.025 323.168 203.931 312.678L203.615 311.869Z" fill="#2A2C31" fill-opacity="0.2"/>
<path d="M171.971 344.874C171.371 345.223 169.035 345.949 166.455 346.646C167.208 344.595 168.087 342.307 168.547 341.443C168.593 341.359 168.696 341.164 169.161 341.094C169.944 340.968 171.03 341.331 171.641 341.903C172.216 342.433 172.558 343.312 172.47 344.037C172.397 344.623 172.076 344.819 171.971 344.874ZM176.17 344.428C176.388 342.642 175.662 340.731 174.276 339.434C172.817 338.067 170.516 337.355 168.562 337.648C167.045 337.885 165.857 338.681 165.212 339.894C164.215 341.764 162.048 347.957 161.805 348.655L160.75 351.696L164.047 350.887C165.386 350.566 172.166 348.878 173.947 347.832C175.203 347.092 175.993 345.893 176.17 344.428Z" fill="#2A2C31" fill-opacity="0.2"/>
<path d="M67.6008 333.898C67.6008 331.714 69.3714 329.944 71.5556 329.944H105.896C108.081 329.944 109.851 331.714 109.851 333.898C109.851 336.083 108.081 337.853 105.896 337.853H71.5556C69.3714 337.853 67.6008 336.083 67.6008 333.898Z" fill="#2A2C31" fill-opacity="0.2"/>
<path d="M534.77 60.452C534.77 58.2678 536.541 56.4972 538.725 56.4972H573.066C575.25 56.4972 577.021 58.2678 577.021 60.452C577.021 62.6362 575.25 64.4068 573.066 64.4068H538.725C536.541 64.4068 534.77 62.6362 534.77 60.452Z" fill="#2A2C31" fill-opacity="0.2"/>
<path d="M469.602 64.2437C468.506 65.2341 467.417 66.2248 466.366 67.2012C466.155 67.4105 465.943 67.5917 465.728 67.787C464.161 65.5411 462.335 63.4347 460.28 61.5096C458.223 59.5984 455.976 57.8827 453.575 56.418C453.78 56.2087 453.989 56.0132 454.201 55.8179C455.077 54.9948 455.955 54.1581 456.836 53.3072C464.593 45.8858 471.933 38.8688 481.997 41.2542C484.965 50.3635 477.496 57.1153 469.602 64.2437ZM468.797 75.6131L467.38 71.1073C467.924 70.633 468.469 70.1726 469 69.6704C469.854 68.8753 470.739 68.0802 471.626 67.2711C472.174 70.633 470.374 73.6741 468.797 75.6131ZM450.037 54.8694L445.245 53.5442C447.318 52.0795 450.576 50.4053 454.143 50.9075C453.28 51.7305 452.423 52.5536 451.566 53.3487C451.037 53.8509 450.541 54.3672 450.037 54.8694ZM484.882 38.4224L484.001 38.1574C472.839 34.935 464.459 41.2684 457.144 48.062C448.093 44.8954 440.463 52.8328 440.126 53.1955L438.198 55.2461L449.985 58.4965L449.997 58.4546C452.764 59.9752 455.338 61.8304 457.645 63.9787C459.949 66.141 461.931 68.5542 463.552 71.1349L463.512 71.1488L466.979 82.1835L469.172 80.3839C469.553 80.063 478.01 72.9487 474.673 64.495C482.144 57.6038 489.292 49.7219 485.198 39.2316L484.882 38.4224Z" fill="#2A2C31" fill-opacity="0.2"/>
<path d="M453.238 71.4283C452.639 71.777 450.302 72.5025 447.722 73.2C448.475 71.1493 449.354 68.8612 449.815 67.9963C449.861 67.9126 449.964 67.7173 450.429 67.6476C451.211 67.522 452.297 67.8848 452.908 68.4568C453.484 68.9869 453.825 69.8658 453.737 70.5912C453.664 71.1771 453.344 71.3725 453.238 71.4283ZM457.438 70.9818C457.655 69.1962 456.929 67.285 455.543 65.9876C454.084 64.6205 451.783 63.909 449.829 64.202C448.312 64.4391 447.125 65.2344 446.479 66.4481C445.482 68.3174 443.315 74.5112 443.072 75.2087L442.017 78.2497L445.314 77.4405C446.654 77.1196 453.433 75.4317 455.214 74.3855C456.47 73.6461 457.26 72.4465 457.438 70.9818Z" fill="#2A2C31" fill-opacity="0.2"/>
<path d="M347.661 59.322C347.661 57.1378 349.431 55.3672 351.616 55.3672H385.957C388.141 55.3672 389.911 57.1378 389.911 59.322C389.911 61.5062 388.141 63.2768 385.957 63.2768H351.616C349.431 63.2768 347.661 61.5062 347.661 59.322Z" fill="#2A2C31" fill-opacity="0.2"/>
<path d="M282.493 63.1137C281.397 64.1041 280.308 65.0947 279.257 66.0712C279.045 66.2805 278.834 66.4617 278.619 66.657C277.051 64.4111 275.226 62.3047 273.171 60.3796C271.114 58.4684 268.867 56.7527 266.466 55.288C266.671 55.0787 266.88 54.8832 267.092 54.6879C267.968 53.8648 268.846 53.0281 269.727 52.1772C277.484 44.7558 284.824 37.7388 294.888 40.1242C297.856 49.2335 290.387 55.9853 282.493 63.1137ZM281.688 74.4831L280.271 69.9773C280.815 69.503 281.36 69.0426 281.891 68.5404C282.745 67.7453 283.63 66.9502 284.516 66.1411C285.065 69.503 283.265 72.5441 281.688 74.4831ZM262.928 53.7394L258.136 52.4142C260.209 50.9495 263.467 49.2753 267.034 49.7775C266.171 50.6005 265.314 51.4236 264.457 52.2187C263.928 52.7209 263.431 53.2372 262.928 53.7394ZM297.773 37.2924L296.892 37.0274C285.73 33.805 277.35 40.1384 270.035 46.932C260.984 43.7653 253.354 51.7028 253.017 52.0655L251.089 54.1161L262.876 57.3665L262.887 57.3246C265.655 58.8452 268.229 60.7004 270.536 62.8487C272.84 65.011 274.822 67.4241 276.443 70.0049L276.403 70.0188L279.87 81.0535L282.063 79.2539C282.443 78.933 290.901 71.8187 287.564 63.365C295.035 56.4738 302.183 48.5919 298.089 38.1016L297.773 37.2924Z" fill="#2A2C31" fill-opacity="0.2"/>
<path d="M266.129 70.2983C265.53 70.647 263.193 71.3725 260.613 72.07C261.366 70.0193 262.245 67.7312 262.705 66.8663C262.752 66.7826 262.854 66.5873 263.319 66.5176C264.102 66.392 265.188 66.7548 265.799 67.3268C266.375 67.8569 266.716 68.7358 266.628 69.4612C266.555 70.0471 266.234 70.2425 266.129 70.2983ZM270.328 69.8518C270.546 68.0662 269.82 66.155 268.434 64.8576C266.975 63.4905 264.674 62.779 262.72 63.072C261.203 63.3091 260.015 64.1044 259.37 65.3181C258.373 67.1874 256.206 73.3812 255.963 74.0787L254.908 77.1197L258.205 76.3104C259.544 75.9896 266.324 74.3017 268.105 73.2555C269.361 72.5161 270.151 71.3165 270.328 69.8518Z" fill="#2A2C31" fill-opacity="0.2"/>
<path d="M160.552 59.322C160.552 57.1378 162.322 55.3672 164.507 55.3672H198.847C201.032 55.3672 202.802 57.1378 202.802 59.322C202.802 61.5062 201.032 63.2768 198.847 63.2768H164.507C162.322 63.2768 160.552 61.5062 160.552 59.322Z" fill="#2A2C31" fill-opacity="0.2"/>
<path d="M95.3835 63.1137C94.2882 64.1041 93.1987 65.0947 92.148 66.0712C91.9364 66.2805 91.7248 66.4617 91.5102 66.657C89.9424 64.4111 88.1167 62.3047 86.0616 60.3796C84.005 58.4684 81.7575 56.7527 79.3566 55.288C79.5623 55.0787 79.771 54.8832 79.9826 54.6879C80.8589 53.8648 81.7366 53.0281 82.6174 52.1772C90.3745 44.7558 97.7144 37.7388 107.779 40.1242C110.747 49.2335 103.278 55.9853 95.3835 63.1137ZM94.5787 74.4831L93.1614 69.9773C93.7054 69.503 94.2509 69.0426 94.7815 68.5404C95.6354 67.7453 96.5206 66.9502 97.4073 66.1411C97.9558 69.503 96.1555 72.5441 94.5787 74.4831ZM75.8187 53.7394L71.0272 52.4142C73.1003 50.9495 76.3582 49.2753 79.9245 49.7775C79.0616 50.6005 78.2047 51.4236 77.3477 52.2187C76.8187 52.7209 76.3224 53.2372 75.8187 53.7394ZM110.664 37.2924L109.783 37.0274C98.6205 33.805 90.2404 40.1384 82.926 46.932C73.8753 43.7653 66.2448 51.7028 65.908 52.0655L63.9795 54.1161L75.7664 57.3665L75.7784 57.3246C78.5459 58.8452 81.1197 60.7004 83.4267 62.8487C85.7307 65.011 87.7128 67.4241 89.3343 70.0049L89.2941 70.0188L92.7606 81.0535L94.9543 79.2539C95.3343 78.933 103.792 71.8187 100.455 63.365C107.926 56.4738 115.074 48.5919 110.98 38.1016L110.664 37.2924Z" fill="#2A2C31" fill-opacity="0.2"/>
<path d="M79.0196 70.2983C78.4205 70.647 76.0837 71.3725 73.504 72.07C74.2566 70.0193 75.1358 67.7312 75.5964 66.8663C75.6426 66.7826 75.7454 66.5873 76.2103 66.5176C76.9928 66.392 78.0792 66.7548 78.6902 67.3268C79.2655 67.8569 79.6068 68.7358 79.5189 69.4612C79.4459 70.0471 79.1254 70.2425 79.0196 70.2983ZM83.2193 69.8518C83.4369 68.0662 82.7111 66.155 81.3251 64.8576C79.8661 63.4905 77.5651 62.779 75.6113 63.072C74.0941 63.3091 72.9064 64.1044 72.2611 65.3181C71.264 67.1874 69.0971 73.3812 68.8542 74.0787L67.799 77.1197L71.0956 76.3104C72.4354 75.9896 79.2148 74.3017 80.9958 73.2555C82.2521 72.5161 83.042 71.3165 83.2193 69.8518Z" fill="#2A2C31" fill-opacity="0.2"/>
</svg>
