<svg width="29" height="45" viewBox="0 0 29 45" fill="none" xmlns="http://www.w3.org/2000/svg">
<path d="M17.7634 28.5417L17.5837 30.8986L16.0811 31.0807V22.2788C18.0368 21.6017 19.4535 19.7787 19.4535 17.6303C19.4535 14.8959 17.21 12.6824 14.4535 12.6824C11.697 12.6824 9.45348 14.8959 9.45348 17.6303C9.45348 19.7787 10.8701 21.6017 12.8259 22.2788V31.4714L11.3259 31.6537L11.1488 28.6719C11.1488 26.4584 10.0785 24.4141 8.28419 23.1772C5.15659 21.0287 3.38577 17.487 3.54983 13.6849C3.79593 7.95575 8.66571 3.28125 14.4079 3.25521H14.4548C17.361 3.25521 20.0941 4.38811 22.1553 6.43238C24.2269 8.50269 25.3688 11.25 25.3688 14.1667C25.3688 17.7604 23.6058 21.1068 20.654 23.1511C18.8415 24.4011 17.7582 26.4714 17.7634 28.5417ZM14.4535 19.31C13.4912 19.31 12.7087 18.5548 12.7087 17.6303C12.7087 16.6928 13.4912 15.9377 14.4535 15.9377C15.4157 15.9377 16.1983 16.6928 16.1983 17.6303C16.1983 18.5548 15.4157 19.31 14.4535 19.31ZM21.0134 28.6719C21.0134 27.5391 21.5707 26.4715 22.5056 25.8335C26.3363 23.1772 28.6241 18.8281 28.6241 14.1667C28.6241 10.3776 27.1423 6.80996 24.4509 4.12766C21.7764 1.47141 18.2282 0 14.4548 0H14.3936C6.81416 0.0390625 0.622727 5.98962 0.297206 13.5417C0.0849663 18.4766 2.38318 23.0731 6.44177 25.8595C7.35193 26.4845 7.89356 27.5392 7.89617 28.7632L8.27899 35.2996L20.6241 33.8022L21.0134 28.6719Z" fill="#FFC837"/>
<path d="M19.6264 35.8044L9.47925 36.9373L9.83862 40.1666L19.9858 39.0337L19.6264 35.8044Z" fill="#FFC837"/>
<path d="M11.4846 44.6898L18.2502 44.1168L17.9807 40.8746L11.2151 41.4346L11.4846 44.6898Z" fill="#FFC837"/>
</svg>
