<?xml version="1.0" encoding="UTF-8" standalone="no"?>
<!DOCTYPE svg PUBLIC "-//W3C//DTD SVG 1.1//EN" "http://www.w3.org/Graphics/SVG/1.1/DTD/svg11.dtd">
<svg width="100%" height="100%" viewBox="0 0 702 321" version="1.1" xmlns="http://www.w3.org/2000/svg" xmlns:xlink="http://www.w3.org/1999/xlink" xml:space="preserve" xmlns:serif="http://www.serif.com/" style="fill-rule:evenodd;clip-rule:evenodd;stroke-linejoin:round;stroke-miterlimit:1.5;">
    <g transform="matrix(1,0,0,1,-4705.24,-9388.03)">
        <g id="Lines---Markers" serif:id="Lines &amp; Markers" transform="matrix(0.253809,0,0,0.253809,4548.21,9292.63)">
            <g transform="matrix(1,0,0,1,-884.451,-7337.93)">
                <path d="M1787.08,8163.26C1712.98,8154.45 1582.51,8196.05 1552.09,8251.97" style="fill:none;stroke:url(#_Linear1);stroke-width:7.88px;stroke-dasharray:23.64,23.64,23.64,23.64;"/>
            </g>
            <g id="Marker-1--Europe-" serif:id="Marker 1 (Europe)" transform="matrix(0.514645,0,0,0.514645,963.962,-3446.98)">
                <circle cx="2010.65" cy="8177.74" r="34.004" style="fill:none;stroke:url(#_Linear2);stroke-width:15.31px;"/>
            </g>
            <g id="Marker-1--Europe-1" serif:id="Marker 1 (Europe)" transform="matrix(0.514645,0,0,0.514645,771.139,-3433.37)">
                <circle cx="2010.65" cy="8177.74" r="34.004" style="fill:none;stroke:url(#_Linear3);stroke-width:15.31px;"/>
            </g>
            <g id="Marker-2--A.-North-" serif:id="Marker 2 (A. North)" transform="matrix(0.514645,0,0,0.514645,-394.649,-3287.75)">
                <circle cx="2010.65" cy="8177.74" r="34.004" style="fill:none;stroke:url(#_Linear4);stroke-width:15.31px;"/>
            </g>
            <g id="Marker-2--A.-North-1" serif:id="Marker 2 (A. North)" transform="matrix(0.514645,0,0,0.514645,-99.204,-3380.53)">
                <circle cx="2010.65" cy="8177.74" r="34.004" style="fill:none;stroke:url(#_Linear5);stroke-width:15.31px;"/>
            </g>
            <g id="Marker-3--A.-South-" serif:id="Marker 3 (A. South)" transform="matrix(0.514645,0,0,0.514645,378.88,-2777.92)">
                <circle cx="2010.65" cy="8177.74" r="34.004" style="fill:none;stroke:url(#_Linear6);stroke-width:15.31px;"/>
            </g>
            <g id="Marker-4--Africa-" serif:id="Marker 4 (Africa)" transform="matrix(0.514645,0,0,0.514645,997.628,-2908.29)">
                <circle cx="2010.65" cy="8177.74" r="34.004" style="fill:none;stroke:url(#_Linear7);stroke-width:15.31px;"/>
            </g>
            <g id="Marker-5--Australia-" serif:id="Marker 5 (Australia)" transform="matrix(0.514645,0,0,0.514645,2150.92,-2589.95)">
                <circle cx="2010.65" cy="8177.74" r="34.004" style="fill:none;stroke:url(#_Linear8);stroke-width:15.31px;"/>
            </g>
            <g id="Marker-6--Asia-" serif:id="Marker 6 (Asia)" transform="matrix(0.514645,0,0,0.514645,1873.2,-3098.27)">
                <circle cx="2010.65" cy="8177.74" r="34.004" style="fill:none;stroke:url(#_Linear9);stroke-width:15.31px;"/>
            </g>
            <g id="Marker-7--Asia-2-" serif:id="Marker 7 (Asia 2)" transform="matrix(0.514645,0,0,0.514645,2328.33,-3584.66)">
                <circle cx="2010.65" cy="8177.74" r="34.004" style="fill:none;stroke:url(#_Linear10);stroke-width:15.31px;"/>
            </g>
            <g id="_1-2" serif:id="1-2" transform="matrix(1,0,0,1,185.674,-7432.53)">
                <path d="M1783.53,8182.49C1748.92,8160.59 1705.02,8158.83 1650.63,8190.2" style="fill:none;stroke:url(#_Linear11);stroke-width:7.88px;stroke-dasharray:23.64,23.64,23.64,23.64;"/>
            </g>
            <g id="_2-3" serif:id="2-3" transform="matrix(1,0,0,1,706.149,-6866.99)">
                <path d="M1291.85,8159.35C1094.04,8118.55 924.238,8142.25 737.675,8290.06" style="fill:none;stroke:url(#_Linear12);stroke-width:7.88px;stroke-dasharray:23.64,23.64,23.64,23.64;"/>
            </g>
            <g id="_2-31" serif:id="2-3" transform="matrix(1,0,0,1,1097.73,-7156.37)">
                <path d="M1780.06,8262.17C1516.33,8171.8 1129.07,8235.52 965.611,8439.46" style="fill:none;stroke:url(#_Linear13);stroke-width:7.88px;stroke-dasharray:23.64,23.64,23.64,23.64;"/>
            </g>
            <g id="_2-32" serif:id="2-3" transform="matrix(1,0,0,1,1104.21,-7177.42)">
                <path d="M1781.36,8260.97C1279.43,7909.41 415.326,8059.42 306.563,8575.98" style="fill:none;stroke:url(#_Linear14);stroke-width:7.88px;stroke-dasharray:23.64,23.64,23.64,23.64;"/>
            </g>
            <g id="_2-33" serif:id="2-3" transform="matrix(1,0,0,1,1221.54,-6685.02)">
                <path d="M1942.14,8277.47C1100.66,7332.8 321.259,7842.67 210.61,8089.1" style="fill:none;stroke:url(#_Linear15);stroke-width:7.88px;stroke-dasharray:23.64,23.64,23.64,23.64;"/>
            </g>
            <g id="_2-34" serif:id="2-3" transform="matrix(1,0,0,1,1071.66,-7171.57)">
                <path d="M2257.11,7789.1C1900.5,7712.82 1205.24,7852.99 969.138,8434.68" style="fill:none;stroke:url(#_Linear16);stroke-width:7.88px;stroke-dasharray:23.64,23.64,23.64,23.64;"/>
            </g>
            <g id="_2-35" serif:id="2-3" transform="matrix(1,0,0,1,484.8,-7340.83)">
                <path d="M1292.62,8099.4C1046.27,7973.98 698.749,7990.28 473.06,8151.26" style="fill:none;stroke:url(#_Linear17);stroke-width:7.88px;stroke-dasharray:23.64,23.64,23.64,23.64;"/>
            </g>
            <g id="_2-36" serif:id="2-3" transform="matrix(1,0,0,1,187.622,-7450.39)">
                <path d="M1796.88,8187.23C1277.04,7565.58 477.137,8046.05 445.43,8340.43" style="fill:none;stroke:url(#_Linear18);stroke-width:7.88px;stroke-dasharray:23.64,23.64,23.64,23.64;"/>
            </g>
            <g transform="matrix(1,0,0,1,-583.937,-7398.04)">
                <path d="M1959.54,8830.62C1615.1,8744.58 1912.01,8249.29 1554.05,8230.08" style="fill:none;stroke:url(#_Linear19);stroke-width:7.88px;stroke-dasharray:23.64,23.64,23.64,23.64;"/>
            </g>
            <g id="highest-line" serif:id="highest line" transform="matrix(1,0,0,1,-337.054,-7377.6)">
                <path d="M3677.25,7978.22C2877.99,7603.37 1464.09,7709.07 986.626,8270.83" style="fill:none;stroke:url(#_Linear20);stroke-width:7.88px;stroke-dasharray:23.64,23.64,23.64,23.64;"/>
            </g>
        </g>
    </g>
    <defs>
        <linearGradient id="_Linear1" x1="0" y1="0" x2="1" y2="0" gradientUnits="userSpaceOnUse" gradientTransform="matrix(756.756,0,0,55.0065,988.795,8193.84)"><stop offset="0" style="stop-color:rgb(255,221,89);stop-opacity:0.75"/><stop offset="1" style="stop-color:rgb(255,211,42);stop-opacity:0.75"/></linearGradient>
        <linearGradient id="_Linear2" x1="0" y1="0" x2="1" y2="0" gradientUnits="userSpaceOnUse" gradientTransform="matrix(68.0081,0,0,68.0081,1976.65,8177.73)"><stop offset="0" style="stop-color:rgb(255,221,89);stop-opacity:1"/><stop offset="1" style="stop-color:rgb(255,211,42);stop-opacity:1"/></linearGradient>
        <linearGradient id="_Linear3" x1="0" y1="0" x2="1" y2="0" gradientUnits="userSpaceOnUse" gradientTransform="matrix(68.0081,0,0,68.0081,1976.65,8177.73)"><stop offset="0" style="stop-color:rgb(255,221,89);stop-opacity:1"/><stop offset="1" style="stop-color:rgb(255,211,42);stop-opacity:1"/></linearGradient>
        <linearGradient id="_Linear4" x1="0" y1="0" x2="1" y2="0" gradientUnits="userSpaceOnUse" gradientTransform="matrix(68.0081,0,0,68.0081,1976.65,8177.73)"><stop offset="0" style="stop-color:rgb(255,221,89);stop-opacity:1"/><stop offset="1" style="stop-color:rgb(255,211,42);stop-opacity:1"/></linearGradient>
        <linearGradient id="_Linear5" x1="0" y1="0" x2="1" y2="0" gradientUnits="userSpaceOnUse" gradientTransform="matrix(68.0081,0,0,68.0081,1976.65,8177.73)"><stop offset="0" style="stop-color:rgb(255,221,89);stop-opacity:1"/><stop offset="1" style="stop-color:rgb(255,211,42);stop-opacity:1"/></linearGradient>
        <linearGradient id="_Linear6" x1="0" y1="0" x2="1" y2="0" gradientUnits="userSpaceOnUse" gradientTransform="matrix(68.0081,0,0,68.0081,1976.65,8177.73)"><stop offset="0" style="stop-color:rgb(255,221,89);stop-opacity:1"/><stop offset="1" style="stop-color:rgb(255,211,42);stop-opacity:1"/></linearGradient>
        <linearGradient id="_Linear7" x1="0" y1="0" x2="1" y2="0" gradientUnits="userSpaceOnUse" gradientTransform="matrix(68.0081,0,0,68.0081,1976.65,8177.73)"><stop offset="0" style="stop-color:rgb(255,221,89);stop-opacity:1"/><stop offset="1" style="stop-color:rgb(255,211,42);stop-opacity:1"/></linearGradient>
        <linearGradient id="_Linear8" x1="0" y1="0" x2="1" y2="0" gradientUnits="userSpaceOnUse" gradientTransform="matrix(68.0081,0,0,68.0081,1976.65,8177.73)"><stop offset="0" style="stop-color:rgb(255,221,89);stop-opacity:1"/><stop offset="1" style="stop-color:rgb(255,211,42);stop-opacity:1"/></linearGradient>
        <linearGradient id="_Linear9" x1="0" y1="0" x2="1" y2="0" gradientUnits="userSpaceOnUse" gradientTransform="matrix(68.0081,0,0,68.0081,1976.65,8177.73)"><stop offset="0" style="stop-color:rgb(255,221,89);stop-opacity:1"/><stop offset="1" style="stop-color:rgb(255,211,42);stop-opacity:1"/></linearGradient>
        <linearGradient id="_Linear10" x1="0" y1="0" x2="1" y2="0" gradientUnits="userSpaceOnUse" gradientTransform="matrix(68.0081,0,0,68.0081,1976.65,8177.73)"><stop offset="0" style="stop-color:rgb(255,221,89);stop-opacity:1"/><stop offset="1" style="stop-color:rgb(255,211,42);stop-opacity:1"/></linearGradient>
        <linearGradient id="_Linear11" x1="0" y1="0" x2="1" y2="0" gradientUnits="userSpaceOnUse" gradientTransform="matrix(756.756,0,0,55.0065,988.795,8193.84)"><stop offset="0" style="stop-color:rgb(255,221,89);stop-opacity:0.75"/><stop offset="1" style="stop-color:rgb(255,211,42);stop-opacity:0.75"/></linearGradient>
        <linearGradient id="_Linear12" x1="0" y1="0" x2="1" y2="0" gradientUnits="userSpaceOnUse" gradientTransform="matrix(756.756,0,0,55.0065,988.795,8193.84)"><stop offset="0" style="stop-color:rgb(255,221,89);stop-opacity:0.75"/><stop offset="1" style="stop-color:rgb(255,211,42);stop-opacity:0.75"/></linearGradient>
        <linearGradient id="_Linear13" x1="0" y1="0" x2="1" y2="0" gradientUnits="userSpaceOnUse" gradientTransform="matrix(756.756,0,0,55.0065,988.795,8193.84)"><stop offset="0" style="stop-color:rgb(255,221,89);stop-opacity:0.75"/><stop offset="1" style="stop-color:rgb(255,211,42);stop-opacity:0.75"/></linearGradient>
        <linearGradient id="_Linear14" x1="0" y1="0" x2="1" y2="0" gradientUnits="userSpaceOnUse" gradientTransform="matrix(756.756,0,0,55.0065,988.795,8193.84)"><stop offset="0" style="stop-color:rgb(255,221,89);stop-opacity:0.75"/><stop offset="1" style="stop-color:rgb(255,211,42);stop-opacity:0.75"/></linearGradient>
        <linearGradient id="_Linear15" x1="0" y1="0" x2="1" y2="0" gradientUnits="userSpaceOnUse" gradientTransform="matrix(756.756,0,0,55.0065,988.795,8193.84)"><stop offset="0" style="stop-color:rgb(255,221,89);stop-opacity:0.75"/><stop offset="1" style="stop-color:rgb(255,211,42);stop-opacity:0.75"/></linearGradient>
        <linearGradient id="_Linear16" x1="0" y1="0" x2="1" y2="0" gradientUnits="userSpaceOnUse" gradientTransform="matrix(756.756,0,0,55.0065,988.795,8193.84)"><stop offset="0" style="stop-color:rgb(255,221,89);stop-opacity:0.75"/><stop offset="1" style="stop-color:rgb(255,211,42);stop-opacity:0.75"/></linearGradient>
        <linearGradient id="_Linear17" x1="0" y1="0" x2="1" y2="0" gradientUnits="userSpaceOnUse" gradientTransform="matrix(756.756,0,0,55.0065,988.795,8193.84)"><stop offset="0" style="stop-color:rgb(255,221,89);stop-opacity:0.75"/><stop offset="1" style="stop-color:rgb(255,211,42);stop-opacity:0.75"/></linearGradient>
        <linearGradient id="_Linear18" x1="0" y1="0" x2="1" y2="0" gradientUnits="userSpaceOnUse" gradientTransform="matrix(756.756,0,0,55.0065,988.795,8193.84)"><stop offset="0" style="stop-color:rgb(255,221,89);stop-opacity:0.75"/><stop offset="1" style="stop-color:rgb(255,211,42);stop-opacity:0.75"/></linearGradient>
        <linearGradient id="_Linear19" x1="0" y1="0" x2="1" y2="0" gradientUnits="userSpaceOnUse" gradientTransform="matrix(756.756,0,0,55.0065,988.795,8193.84)"><stop offset="0" style="stop-color:rgb(255,221,89);stop-opacity:0.75"/><stop offset="1" style="stop-color:rgb(255,211,42);stop-opacity:0.75"/></linearGradient>
        <linearGradient id="_Linear20" x1="0" y1="0" x2="1" y2="0" gradientUnits="userSpaceOnUse" gradientTransform="matrix(756.756,0,0,55.0065,988.795,8193.84)"><stop offset="0" style="stop-color:rgb(255,221,89);stop-opacity:0.75"/><stop offset="1" style="stop-color:rgb(255,211,42);stop-opacity:0.75"/></linearGradient>
    </defs>
</svg>
