<svg width="27" height="36" viewBox="0 0 27 36" fill="none" xmlns="http://www.w3.org/2000/svg">
<path d="M11.7578 34.6914C12.373 35.6484 13.8086 35.6484 14.4238 34.6914C24.4043 20.3359 26.25 18.832 26.25 13.5C26.25 6.25391 20.3711 0.375 13.125 0.375C5.81055 0.375 0 6.25391 0 13.5C0 18.832 1.77734 20.3359 11.7578 34.6914ZM13.125 18.9688C10.0488 18.9688 7.65625 16.5762 7.65625 13.5C7.65625 10.4922 10.0488 8.03125 13.125 8.03125C16.1328 8.03125 18.5938 10.4922 18.5938 13.5C18.5938 16.5762 16.1328 18.9688 13.125 18.9688Z" fill="#F4F4F4"/>
</svg>
