<svg width="177" height="49" viewBox="0 0 177 49" fill="none" xmlns="http://www.w3.org/2000/svg">
<g filter="url(#filter0_d)">
<path d="M1.29297 1.86914H12.3835L26.4614 22.8623L40.212 1.86914H50.6068V45.1125H40.212V22.0452L29.8172 37.1301H22.8601L12.3835 22.0452V45.1125H1.29297V1.86914Z" fill="url(#paint0_linear)"/>
<path d="M65.6804 1.86916H76.0436V45.1125H65.6804V1.86916Z" fill="url(#paint1_linear)"/>
<path d="M91.2304 1.86916H101.69V37.1301H118.537V45.1125H91.2304V1.86916Z" fill="url(#paint2_linear)"/>
<path d="M145.558 1.86914H159.393L173.58 45.1125H162.255L160.127 36.8158H145.558L143.184 45.1125H131.18L145.558 1.86914ZM158.162 29.0848L152.842 10.1658L147.277 29.0848H158.162Z" fill="url(#paint3_linear)"/>
</g>
<defs>
<filter id="filter0_d" x="0.292969" y="0.869141" width="176.287" height="47.2434" filterUnits="userSpaceOnUse" color-interpolation-filters="sRGB">
<feFlood flood-opacity="0" result="BackgroundImageFix"/>
<feColorMatrix in="SourceAlpha" type="matrix" values="0 0 0 0 0 0 0 0 0 0 0 0 0 0 0 0 0 0 127 0"/>
<feOffset dx="1" dy="1"/>
<feGaussianBlur stdDeviation="1"/>
<feColorMatrix type="matrix" values="0 0 0 0 0 0 0 0 0 0 0 0 0 0 0 0 0 0 0.05 0"/>
<feBlend mode="normal" in2="BackgroundImageFix" result="effect1_dropShadow"/>
<feBlend mode="normal" in="SourceGraphic" in2="effect1_dropShadow" result="shape"/>
</filter>
<linearGradient id="paint0_linear" x1="131.705" y1="1.86914" x2="131.705" y2="45.1125" gradientUnits="userSpaceOnUse">
<stop stop-color="#FF8008"/>
<stop offset="1" stop-color="#FFC837"/>
</linearGradient>
<linearGradient id="paint1_linear" x1="131.705" y1="1.86914" x2="131.705" y2="45.1125" gradientUnits="userSpaceOnUse">
<stop stop-color="#FF8008"/>
<stop offset="1" stop-color="#FFC837"/>
</linearGradient>
<linearGradient id="paint2_linear" x1="131.705" y1="1.86914" x2="131.705" y2="45.1125" gradientUnits="userSpaceOnUse">
<stop stop-color="#FF8008"/>
<stop offset="1" stop-color="#FFC837"/>
</linearGradient>
<linearGradient id="paint3_linear" x1="131.705" y1="1.86914" x2="131.705" y2="45.1125" gradientUnits="userSpaceOnUse">
<stop stop-color="#FF8008"/>
<stop offset="1" stop-color="#FFC837"/>
</linearGradient>
</defs>
</svg>
