<svg width="500" height="144" viewBox="0 0 500 144" fill="none" xmlns="http://www.w3.org/2000/svg">
<path d="M251.28 122.459V99.0994H254.416V122.459H251.28ZM253.776 122.459V119.643H264.464V122.459H253.776ZM286.776 123.035C284.685 123.035 282.882 122.662 281.368 121.915C279.853 121.169 278.605 120.187 277.624 118.971C276.642 117.755 275.906 116.454 275.416 115.067C274.946 113.681 274.712 112.347 274.712 111.067V110.363C274.712 108.977 274.957 107.579 275.448 106.171C275.938 104.763 276.685 103.483 277.688 102.331C278.69 101.158 279.938 100.219 281.432 99.5154C282.946 98.8114 284.728 98.4594 286.776 98.4594C288.824 98.4594 290.594 98.8114 292.088 99.5154C293.602 100.219 294.861 101.158 295.864 102.331C296.866 103.483 297.613 104.763 298.104 106.171C298.594 107.579 298.84 108.977 298.84 110.363V111.067C298.84 112.347 298.594 113.681 298.104 115.067C297.634 116.454 296.909 117.755 295.928 118.971C294.946 120.187 293.698 121.169 292.184 121.915C290.669 122.662 288.866 123.035 286.776 123.035ZM286.776 120.155C288.141 120.155 289.368 119.899 290.456 119.387C291.565 118.875 292.504 118.182 293.272 117.307C294.04 116.411 294.626 115.409 295.032 114.299C295.437 113.169 295.64 111.985 295.64 110.747C295.64 109.446 295.437 108.23 295.032 107.099C294.626 105.969 294.04 104.977 293.272 104.123C292.504 103.249 291.565 102.566 290.456 102.075C289.368 101.585 288.141 101.339 286.776 101.339C285.41 101.339 284.173 101.585 283.064 102.075C281.976 102.566 281.048 103.249 280.28 104.123C279.512 104.977 278.925 105.969 278.52 107.099C278.114 108.23 277.912 109.446 277.912 110.747C277.912 111.985 278.114 113.169 278.52 114.299C278.925 115.409 279.512 116.411 280.28 117.307C281.048 118.182 281.976 118.875 283.064 119.387C284.173 119.899 285.41 120.155 286.776 120.155ZM322.431 123.035C320.618 123.035 318.975 122.737 317.503 122.139C316.031 121.542 314.762 120.699 313.695 119.611C312.65 118.523 311.839 117.243 311.263 115.771C310.687 114.278 310.399 112.657 310.399 110.907V110.203C310.399 108.71 310.655 107.27 311.167 105.883C311.701 104.475 312.458 103.217 313.439 102.107C314.442 100.977 315.658 100.091 317.087 99.4514C318.517 98.7901 320.127 98.4594 321.919 98.4594C323.861 98.4594 325.589 98.8328 327.103 99.5794C328.618 100.305 329.834 101.329 330.751 102.651C331.669 103.953 332.202 105.467 332.351 107.195H329.151C329.002 105.894 328.575 104.817 327.871 103.963C327.167 103.089 326.293 102.438 325.247 102.011C324.223 101.563 323.114 101.339 321.919 101.339C320.703 101.339 319.583 101.563 318.559 102.011C317.535 102.438 316.65 103.057 315.903 103.867C315.178 104.678 314.613 105.649 314.207 106.779C313.802 107.91 313.599 109.179 313.599 110.587C313.599 112.187 313.813 113.595 314.239 114.811C314.687 116.006 315.306 117.009 316.095 117.819C316.885 118.609 317.813 119.206 318.879 119.611C319.967 120.017 321.151 120.219 322.431 120.219C324.245 120.219 325.834 119.857 327.199 119.131C328.586 118.385 329.631 117.425 330.335 116.251L329.183 120.059V113.115H332.127V118.683C331.082 120.049 329.738 121.115 328.095 121.883C326.453 122.651 324.565 123.035 322.431 123.035ZM321.599 113.755V111.131H334.111V113.755H321.599ZM346.657 122.459V99.0994H349.793V122.459H346.657ZM372.239 123.035C370.298 123.035 368.645 122.715 367.279 122.075C365.914 121.435 364.869 120.55 364.143 119.419C363.418 118.289 363.055 117.009 363.055 115.579H366.191C366.191 116.283 366.373 116.987 366.735 117.691C367.119 118.395 367.749 118.982 368.623 119.451C369.519 119.921 370.725 120.155 372.239 120.155C373.647 120.155 374.799 119.953 375.695 119.547C376.591 119.121 377.253 118.577 377.679 117.915C378.106 117.233 378.319 116.497 378.319 115.707C378.319 114.747 377.903 113.958 377.071 113.339C376.239 112.699 375.023 112.305 373.423 112.155L370.831 111.931C368.762 111.761 367.109 111.121 365.871 110.011C364.634 108.902 364.015 107.441 364.015 105.627C364.015 104.198 364.357 102.95 365.039 101.883C365.743 100.817 366.714 99.9848 367.951 99.3874C369.189 98.7688 370.629 98.4594 372.271 98.4594C373.893 98.4594 375.322 98.7581 376.559 99.3554C377.797 99.9528 378.757 100.795 379.439 101.883C380.143 102.95 380.495 104.23 380.495 105.723H377.359C377.359 104.977 377.178 104.273 376.815 103.611C376.474 102.95 375.93 102.406 375.183 101.979C374.437 101.553 373.466 101.339 372.271 101.339C371.119 101.339 370.159 101.542 369.391 101.947C368.645 102.353 368.079 102.886 367.695 103.547C367.333 104.187 367.151 104.881 367.151 105.627C367.151 106.481 367.482 107.238 368.143 107.899C368.805 108.561 369.786 108.945 371.087 109.051L373.679 109.275C375.279 109.403 376.655 109.745 377.807 110.299C378.981 110.833 379.877 111.558 380.495 112.475C381.135 113.371 381.455 114.449 381.455 115.707C381.455 117.137 381.071 118.406 380.303 119.515C379.535 120.625 378.458 121.489 377.071 122.107C375.685 122.726 374.074 123.035 372.239 123.035ZM398.699 122.459V101.275H401.835V122.459H398.699ZM391.595 101.915V99.0994H408.939V101.915H391.595ZM421.219 122.459V99.0994H424.355V122.459H421.219ZM449.362 123.035C447.229 123.035 445.405 122.662 443.89 121.915C442.397 121.169 441.191 120.198 440.274 119.003C439.357 117.809 438.685 116.518 438.258 115.131C437.831 113.723 437.618 112.369 437.618 111.067V110.363C437.618 108.955 437.831 107.547 438.258 106.139C438.706 104.731 439.389 103.451 440.306 102.299C441.223 101.147 442.418 100.219 443.89 99.5154C445.362 98.8114 447.122 98.4594 449.17 98.4594C451.261 98.4594 453.053 98.8221 454.546 99.5474C456.039 100.273 457.223 101.286 458.098 102.587C458.973 103.889 459.506 105.425 459.698 107.195H456.498C456.327 105.873 455.901 104.785 455.218 103.931C454.535 103.057 453.671 102.406 452.626 101.979C451.602 101.553 450.45 101.339 449.17 101.339C447.783 101.339 446.567 101.585 445.522 102.075C444.477 102.545 443.602 103.217 442.898 104.091C442.215 104.945 441.693 105.937 441.33 107.067C440.989 108.198 440.818 109.425 440.818 110.747C440.818 112.006 440.989 113.201 441.33 114.331C441.693 115.462 442.226 116.465 442.93 117.339C443.655 118.214 444.551 118.907 445.618 119.419C446.685 119.91 447.933 120.155 449.362 120.155C451.367 120.155 453.053 119.654 454.418 118.651C455.783 117.649 456.615 116.198 456.914 114.299H460.114C459.901 115.899 459.357 117.361 458.482 118.683C457.629 120.006 456.434 121.062 454.898 121.851C453.383 122.641 451.538 123.035 449.362 123.035ZM480.239 123.035C478.298 123.035 476.645 122.715 475.279 122.075C473.914 121.435 472.869 120.55 472.143 119.419C471.418 118.289 471.055 117.009 471.055 115.579H474.191C474.191 116.283 474.373 116.987 474.735 117.691C475.119 118.395 475.749 118.982 476.623 119.451C477.519 119.921 478.725 120.155 480.239 120.155C481.647 120.155 482.799 119.953 483.695 119.547C484.591 119.121 485.253 118.577 485.679 117.915C486.106 117.233 486.319 116.497 486.319 115.707C486.319 114.747 485.903 113.958 485.071 113.339C484.239 112.699 483.023 112.305 481.423 112.155L478.831 111.931C476.762 111.761 475.109 111.121 473.871 110.011C472.634 108.902 472.015 107.441 472.015 105.627C472.015 104.198 472.357 102.95 473.039 101.883C473.743 100.817 474.714 99.9848 475.951 99.3874C477.189 98.7688 478.629 98.4594 480.271 98.4594C481.893 98.4594 483.322 98.7581 484.559 99.3554C485.797 99.9528 486.757 100.795 487.439 101.883C488.143 102.95 488.495 104.23 488.495 105.723H485.359C485.359 104.977 485.178 104.273 484.815 103.611C484.474 102.95 483.93 102.406 483.183 101.979C482.437 101.553 481.466 101.339 480.271 101.339C479.119 101.339 478.159 101.542 477.391 101.947C476.645 102.353 476.079 102.886 475.695 103.547C475.333 104.187 475.151 104.881 475.151 105.627C475.151 106.481 475.482 107.238 476.143 107.899C476.805 108.561 477.786 108.945 479.087 109.051L481.679 109.275C483.279 109.403 484.655 109.745 485.807 110.299C486.981 110.833 487.877 111.558 488.495 112.475C489.135 113.371 489.455 114.449 489.455 115.707C489.455 117.137 489.071 118.406 488.303 119.515C487.535 120.625 486.458 121.489 485.071 122.107C483.685 122.726 482.074 123.035 480.239 123.035Z" fill="white"/>
<g filter="url(#filter0_i)">
<path d="M129.822 96.8636L107.204 126.486L85.0912 96.8636L65.0541 126.486L79.3425 88.9213L164 42.2539L219.705 144L149.776 126.486L129.822 96.8636Z" fill="url(#paint0_linear)"/>
<path d="M159.548 34.1221L59.0866 76.2303L0 144L73.0388 0L107.204 42.1339L140.866 0L159.548 34.1221Z" fill="url(#paint1_linear)"/>
</g>
<g filter="url(#filter1_d)">
<path d="M248.303 21.2108H264.013L283.955 51.1574L303.433 21.2108H318.157V82.8972H303.433V49.9918L288.708 71.5104H278.853L264.013 49.9918V82.8972H248.303V21.2108Z" fill="url(#paint2_linear)"/>
<path d="M339.509 21.2108H354.188V82.8973H339.509V21.2108Z" fill="url(#paint3_linear)"/>
<path d="M375.7 21.2108H390.516V71.5104H414.38V82.8973H375.7V21.2108Z" fill="url(#paint4_linear)"/>
<path d="M452.655 21.2108H472.253L492.349 82.8972H476.307L473.292 71.0621H452.655L449.293 82.8972H432.289L452.655 21.2108ZM470.51 60.0338L462.974 33.046L455.09 60.0338H470.51Z" fill="url(#paint5_linear)"/>
</g>
<defs>
<filter id="filter0_i" x="0" y="0" width="221.705" height="146" filterUnits="userSpaceOnUse" color-interpolation-filters="sRGB">
<feFlood flood-opacity="0" result="BackgroundImageFix"/>
<feBlend mode="normal" in="SourceGraphic" in2="BackgroundImageFix" result="shape"/>
<feColorMatrix in="SourceAlpha" type="matrix" values="0 0 0 0 0 0 0 0 0 0 0 0 0 0 0 0 0 0 127 0" result="hardAlpha"/>
<feOffset dx="2" dy="2"/>
<feGaussianBlur stdDeviation="2.5"/>
<feComposite in2="hardAlpha" operator="arithmetic" k2="-1" k3="1"/>
<feColorMatrix type="matrix" values="0 0 0 0 0 0 0 0 0 0 0 0 0 0 0 0 0 0 0.25 0"/>
<feBlend mode="normal" in2="shape" result="effect1_innerShadow"/>
</filter>
<filter id="filter1_d" x="247.303" y="20.2108" width="248.046" height="65.6865" filterUnits="userSpaceOnUse" color-interpolation-filters="sRGB">
<feFlood flood-opacity="0" result="BackgroundImageFix"/>
<feColorMatrix in="SourceAlpha" type="matrix" values="0 0 0 0 0 0 0 0 0 0 0 0 0 0 0 0 0 0 127 0"/>
<feOffset dx="1" dy="1"/>
<feGaussianBlur stdDeviation="1"/>
<feColorMatrix type="matrix" values="0 0 0 0 0 0 0 0 0 0 0 0 0 0 0 0 0 0 0.05 0"/>
<feBlend mode="normal" in2="BackgroundImageFix" result="effect1_dropShadow"/>
<feBlend mode="normal" in="SourceGraphic" in2="effect1_dropShadow" result="shape"/>
</filter>
<linearGradient id="paint0_linear" x1="0" y1="72" x2="219.705" y2="72" gradientUnits="userSpaceOnUse">
<stop stop-color="#FF8008"/>
<stop offset="1" stop-color="#FFC837"/>
</linearGradient>
<linearGradient id="paint1_linear" x1="0" y1="72" x2="219.705" y2="72" gradientUnits="userSpaceOnUse">
<stop stop-color="#FF8008"/>
<stop offset="1" stop-color="#FFC837"/>
</linearGradient>
<linearGradient id="paint2_linear" x1="433.033" y1="21.2108" x2="433.033" y2="82.8973" gradientUnits="userSpaceOnUse">
<stop stop-color="#FF8008"/>
<stop offset="1" stop-color="#FFC837"/>
</linearGradient>
<linearGradient id="paint3_linear" x1="433.033" y1="21.2108" x2="433.033" y2="82.8973" gradientUnits="userSpaceOnUse">
<stop stop-color="#FF8008"/>
<stop offset="1" stop-color="#FFC837"/>
</linearGradient>
<linearGradient id="paint4_linear" x1="433.033" y1="21.2108" x2="433.033" y2="82.8973" gradientUnits="userSpaceOnUse">
<stop stop-color="#FF8008"/>
<stop offset="1" stop-color="#FFC837"/>
</linearGradient>
<linearGradient id="paint5_linear" x1="433.033" y1="21.2108" x2="433.033" y2="82.8973" gradientUnits="userSpaceOnUse">
<stop stop-color="#FF8008"/>
<stop offset="1" stop-color="#FFC837"/>
</linearGradient>
</defs>
</svg>
