<svg width="26" height="26" viewBox="0 0 26 26" fill="none" xmlns="http://www.w3.org/2000/svg">
<path d="M25.0723 1.3457L19.9941 0.173828C19.457 0.0273438 18.8711 0.320312 18.627 0.857422L16.2832 6.32617C16.0879 6.81445 16.2344 7.35156 16.625 7.69336L19.6035 10.1348C17.8457 13.8457 14.7695 16.9707 10.9609 18.7773L8.51953 15.7988C8.17773 15.4082 7.64062 15.2617 7.15234 15.457L1.68359 17.8008C1.14648 18.0449 0.902344 18.6309 1 19.168L2.17188 24.2461C2.31836 24.7832 2.75781 25.125 3.34375 25.125C15.8438 25.125 26 15.0176 26 2.46875C26 1.93164 25.6094 1.49219 25.0723 1.3457Z" fill="#FFC837"/>
</svg>
