<svg width="30" height="30" viewBox="0 0 30 30" fill="none" xmlns="http://www.w3.org/2000/svg">
<g clip-path="url(#clip0)">
<path d="M4.64625 23.054C4.94996 22.7485 6.08793 21.7854 7.05367 20.9891L7.78699 21.9892L7.9009 22.1188C9.0259 23.2484 10.4388 23.3965 11.8777 22.5262C13.8139 21.3688 16.5259 18.8595 17.6907 17.6929C18.8537 16.5354 21.3602 13.8225 22.5231 11.878C23.387 10.4428 23.2416 9.03538 22.1166 7.90575L20.9842 7.06324C21.7851 6.09101 22.7444 4.95214 23.0472 4.64658C23.3759 4.32251 24.5417 3.35021 25.4694 2.60021C26.3213 3.65576 27.4203 5.33174 27.4796 6.35025C27.6028 8.44285 25.5713 11.3687 24.5954 12.7761L24.3018 13.1929C23.4944 14.3781 21.8361 16.2206 19.3703 18.6743L18.6694 19.378C16.2157 21.841 14.3722 23.4984 13.1916 24.304L12.7676 24.6002C11.3638 25.5725 8.44535 27.591 6.34071 27.4798C5.32682 27.4243 3.64996 26.3225 2.59163 25.4707C3.34811 24.5447 4.31755 23.3781 4.64625 23.054ZM0.0258874 25.8687C0.108295 26.3317 0.383293 26.7299 0.775886 26.9799C1.37589 27.4892 4.04532 29.665 6.2055 29.7947C6.31013 29.8039 6.41569 29.8039 6.52125 29.8039C9.33699 29.8039 12.4102 27.6651 14.0898 26.4984L14.4963 26.2206C15.7963 25.3317 17.7528 23.5817 20.3083 21.0076L21.0055 20.3132C23.5722 17.7576 25.325 15.8039 26.2139 14.4983L26.4963 14.091C27.7065 12.3502 29.9611 9.10949 29.7907 6.21134C29.6629 4.05393 27.4833 1.37802 26.9713 0.785426C26.7259 0.387278 26.324 0.109437 25.862 0.0261031C25.3583 -0.0572303 24.8389 0.0909767 24.4602 0.43357C24.0861 0.739125 21.9889 2.43361 21.4102 3.01694C20.8509 3.5725 18.9935 5.83171 18.6805 6.21134C18.4324 6.48912 18.2972 6.84093 18.2972 7.2113C18.2972 7.60945 18.4527 7.97984 18.7342 8.26687L20.537 9.60027C20.774 9.85027 20.8907 10.1002 20.5379 10.6928C19.5666 12.3132 17.324 14.7854 16.0537 16.0632C14.7824 17.3317 12.3028 19.5724 10.6861 20.5447C10.0981 20.8965 9.84812 20.7761 9.5972 20.5447L8.37127 18.8688L8.25646 18.7392C7.6972 18.1743 6.79347 18.1558 6.21014 18.6835C5.83514 18.9891 3.57033 20.8595 3.01014 21.4151C2.43144 21.9892 0.732374 24.091 0.429596 24.4613C0.086077 24.841 -0.0648534 25.3595 0.0258874 25.8687Z" fill="#FFC837"/>
</g>
<defs>
<clipPath id="clip0">
<rect width="30" height="30" fill="white"/>
</clipPath>
</defs>
</svg>
