<svg width="456" height="307" viewBox="0 0 456 307" fill="none" xmlns="http://www.w3.org/2000/svg">
<path d="M0 0H450V300H0V0Z" fill="#2A2C31" fill-opacity="0.2"/>
<path d="M421 206.5C421 204.567 422.567 203 424.5 203H452.5C454.433 203 456 204.567 456 206.5C456 208.433 454.433 210 452.5 210H424.5C422.567 210 421 208.433 421 206.5Z" fill="#2A2C31" fill-opacity="0.2"/>
<path d="M367.015 209.856C366.107 210.733 365.205 211.609 364.335 212.474C364.159 212.659 363.984 212.819 363.806 212.992C362.507 211.004 360.995 209.14 359.293 207.436C357.589 205.745 355.727 204.227 353.738 202.93C353.909 202.745 354.082 202.572 354.257 202.399C354.983 201.671 355.71 200.93 356.44 200.177C362.865 193.609 368.946 187.399 377.283 189.51C379.742 197.572 373.554 203.547 367.015 209.856ZM366.348 219.918L365.174 215.93C365.625 215.511 366.077 215.103 366.516 214.659C367.224 213.955 367.957 213.251 368.691 212.535C369.146 215.511 367.654 218.202 366.348 219.918ZM350.807 201.56L346.838 200.387C348.556 199.091 351.254 197.609 354.209 198.054C353.494 198.782 352.784 199.51 352.074 200.214C351.636 200.658 351.225 201.115 350.807 201.56ZM379.673 187.004L378.943 186.77C369.696 183.918 362.754 189.523 356.695 195.535C349.198 192.733 342.877 199.757 342.598 200.078L341 201.893L350.764 204.77L350.774 204.733C353.067 206.078 355.199 207.72 357.11 209.622C359.019 211.535 360.661 213.671 362.004 215.955L361.97 215.967L364.842 225.733L366.659 224.14C366.974 223.856 373.98 217.56 371.216 210.079C377.405 203.98 383.326 197.004 379.935 187.72L379.673 187.004Z" fill="#2A2C31" fill-opacity="0.2"/>
<path d="M353.459 216.214C352.963 216.523 351.027 217.165 348.89 217.782C349.513 215.967 350.242 213.942 350.623 213.177C350.662 213.103 350.747 212.93 351.132 212.868C351.78 212.757 352.68 213.078 353.186 213.584C353.663 214.053 353.946 214.831 353.873 215.473C353.812 215.992 353.547 216.165 353.459 216.214ZM356.938 215.819C357.118 214.239 356.517 212.547 355.369 211.399C354.16 210.189 352.254 209.559 350.636 209.819C349.379 210.029 348.395 210.732 347.86 211.806C347.034 213.461 345.239 218.942 345.038 219.56L344.164 222.251L346.895 221.535C348.005 221.251 353.621 219.757 355.096 218.831C356.137 218.177 356.791 217.115 356.938 215.819Z" fill="#2A2C31" fill-opacity="0.2"/>
<path d="M266 205.5C266 203.567 267.567 202 269.5 202H297.5C299.433 202 301 203.567 301 205.5C301 207.433 299.433 209 297.5 209H269.5C267.567 209 266 207.433 266 205.5Z" fill="#2A2C31" fill-opacity="0.2"/>
<path d="M212.015 208.856C211.107 209.733 210.205 210.609 209.335 211.474C209.159 211.659 208.984 211.819 208.806 211.992C207.507 210.004 205.995 208.14 204.293 206.436C202.589 204.745 200.727 203.227 198.738 201.93C198.909 201.745 199.082 201.572 199.257 201.399C199.983 200.671 200.71 199.93 201.44 199.177C207.865 192.609 213.946 186.399 222.283 188.51C224.742 196.572 218.554 202.547 212.015 208.856ZM211.348 218.918L210.174 214.93C210.625 214.511 211.077 214.103 211.516 213.659C212.224 212.955 212.957 212.251 213.691 211.535C214.146 214.511 212.654 217.202 211.348 218.918ZM195.807 200.56L191.838 199.387C193.556 198.091 196.254 196.609 199.209 197.054C198.494 197.782 197.784 198.51 197.074 199.214C196.636 199.658 196.225 200.115 195.807 200.56ZM224.673 186.004L223.943 185.77C214.696 182.918 207.754 188.523 201.695 194.535C194.198 191.733 187.877 198.757 187.598 199.078L186 200.893L195.764 203.77L195.774 203.733C198.067 205.078 200.199 206.72 202.11 208.622C204.019 210.535 205.661 212.671 207.004 214.955L206.97 214.967L209.842 224.733L211.659 223.14C211.974 222.856 218.98 216.56 216.216 209.079C222.405 202.98 228.326 196.004 224.935 186.72L224.673 186.004Z" fill="#2A2C31" fill-opacity="0.2"/>
<path d="M198.459 215.214C197.963 215.523 196.027 216.165 193.89 216.782C194.513 214.967 195.242 212.942 195.623 212.177C195.662 212.103 195.747 211.93 196.132 211.868C196.78 211.757 197.68 212.078 198.186 212.584C198.663 213.053 198.946 213.831 198.873 214.473C198.812 214.992 198.547 215.165 198.459 215.214ZM201.938 214.819C202.118 213.239 201.517 211.547 200.369 210.399C199.16 209.189 197.254 208.559 195.636 208.819C194.379 209.029 193.395 209.732 192.86 210.806C192.034 212.461 190.239 217.942 190.038 218.56L189.164 221.251L191.895 220.535C193.005 220.251 198.621 218.757 200.096 217.831C201.137 217.177 201.791 216.115 201.938 214.819Z" fill="#2A2C31" fill-opacity="0.2"/>
<path d="M111 205.5C111 203.567 112.567 202 114.5 202H142.5C144.433 202 146 203.567 146 205.5C146 207.433 144.433 209 142.5 209H114.5C112.567 209 111 207.433 111 205.5Z" fill="#2A2C31" fill-opacity="0.2"/>
<path d="M57.0149 208.856C56.1075 209.733 55.205 210.609 54.3346 211.474C54.1593 211.659 53.984 211.819 53.8062 211.992C52.5075 210.004 50.9951 208.14 49.2927 206.436C47.5889 204.745 45.7272 203.227 43.7383 201.93C43.9087 201.745 44.0816 201.572 44.2569 201.399C44.9828 200.671 45.7099 199.93 46.4395 199.177C52.8654 192.609 58.9458 186.399 67.2828 188.51C69.7421 196.572 63.5544 202.547 57.0149 208.856ZM56.3482 218.918L55.1741 214.93C55.6247 214.511 56.0766 214.103 56.5161 213.659C57.2235 212.955 57.9568 212.251 58.6914 211.535C59.1457 214.511 57.6543 217.202 56.3482 218.918ZM40.8075 200.56L36.8383 199.387C38.5556 198.091 41.2544 196.609 44.2087 197.054C43.4939 197.782 42.784 198.51 42.0741 199.214C41.6359 199.658 41.2248 200.115 40.8075 200.56ZM69.6729 186.004L68.9433 185.77C59.6964 182.918 52.7544 188.523 46.6951 194.535C39.1976 191.733 32.8766 198.757 32.5976 199.078L31 200.893L40.7642 203.77L40.7741 203.733C43.0667 205.078 45.1988 206.72 47.1099 208.622C49.0186 210.535 50.6605 212.671 52.0037 214.955L51.9704 214.967L54.842 224.733L56.6593 223.14C56.9741 222.856 63.9803 216.56 61.2161 209.079C67.405 202.98 73.326 196.004 69.9346 186.72L69.6729 186.004Z" fill="#2A2C31" fill-opacity="0.2"/>
<path d="M43.4591 215.214C42.9628 215.523 41.027 216.165 38.89 216.782C39.5134 214.967 40.2418 212.942 40.6233 212.177C40.6616 212.103 40.7468 211.93 41.1319 211.868C41.7801 211.757 42.6801 212.078 43.1863 212.584C43.6628 213.053 43.9456 213.831 43.8727 214.473C43.8122 214.992 43.5468 215.165 43.4591 215.214ZM46.9381 214.819C47.1184 213.239 46.5171 211.547 45.369 210.399C44.1603 209.189 42.2542 208.559 40.6357 208.819C39.3789 209.029 38.395 209.732 37.8604 210.806C37.0345 212.461 35.2394 217.942 35.0381 218.56L34.1641 221.251L36.8949 220.535C38.0048 220.251 43.6208 218.757 45.0961 217.831C46.1369 217.177 46.7912 216.115 46.9381 214.819Z" fill="#2A2C31" fill-opacity="0.2"/>
<path d="M442.015 128.856C441.107 129.733 440.205 130.609 439.335 131.474C439.159 131.659 438.984 131.819 438.806 131.992C437.507 130.004 435.995 128.14 434.293 126.436C432.589 124.745 430.727 123.227 428.738 121.93C428.909 121.745 429.082 121.572 429.257 121.399C429.983 120.671 430.71 119.93 431.44 119.177C437.865 112.609 443.946 106.399 452.283 108.51C454.742 116.572 448.554 122.547 442.015 128.856ZM441.348 138.918L440.174 134.93C440.625 134.511 441.077 134.103 441.516 133.659C442.224 132.955 442.957 132.251 443.691 131.535C444.146 134.511 442.654 137.202 441.348 138.918ZM425.807 120.56L421.838 119.387C423.556 118.091 426.254 116.609 429.209 117.054C428.494 117.782 427.784 118.51 427.074 119.214C426.636 119.658 426.225 120.115 425.807 120.56ZM454.673 106.004L453.943 105.77C444.696 102.918 437.754 108.523 431.695 114.535C424.198 111.733 417.877 118.757 417.598 119.078L416 120.893L425.764 123.77L425.774 123.733C428.067 125.078 430.199 126.72 432.11 128.622C434.019 130.535 435.661 132.671 437.004 134.955L436.97 134.967L439.842 144.733L441.659 143.14C441.974 142.856 448.98 136.56 446.216 129.079C452.405 122.98 458.326 116.004 454.935 106.72L454.673 106.004Z" fill="#2A2C31" fill-opacity="0.2"/>
<path d="M428.459 135.214C427.963 135.523 426.027 136.165 423.89 136.782C424.513 134.967 425.242 132.942 425.623 132.177C425.662 132.103 425.747 131.93 426.132 131.868C426.78 131.757 427.68 132.078 428.186 132.584C428.663 133.053 428.946 133.831 428.873 134.473C428.812 134.992 428.547 135.165 428.459 135.214ZM431.938 134.819C432.118 133.239 431.517 131.547 430.369 130.399C429.16 129.189 427.254 128.559 425.636 128.819C424.379 129.029 423.395 129.732 422.86 130.806C422.034 132.461 420.239 137.942 420.038 138.56L419.164 141.251L421.895 140.535C423.005 140.251 428.621 138.757 430.096 137.831C431.137 137.177 431.791 136.115 431.938 134.819Z" fill="#2A2C31" fill-opacity="0.2"/>
<path d="M344 125.5C344 123.567 345.567 122 347.5 122H375.5C377.433 122 379 123.567 379 125.5C379 127.433 377.433 129 375.5 129H347.5C345.567 129 344 127.433 344 125.5Z" fill="#2A2C31" fill-opacity="0.2"/>
<path d="M288.015 127.856C287.107 128.733 286.205 129.609 285.335 130.474C285.159 130.659 284.984 130.819 284.806 130.992C283.507 129.004 281.995 127.14 280.293 125.436C278.589 123.745 276.727 122.227 274.738 120.93C274.909 120.745 275.082 120.572 275.257 120.399C275.983 119.671 276.71 118.93 277.44 118.177C283.865 111.609 289.946 105.399 298.283 107.51C300.742 115.572 294.554 121.547 288.015 127.856ZM287.348 137.918L286.174 133.93C286.625 133.511 287.077 133.103 287.516 132.659C288.224 131.955 288.957 131.251 289.691 130.535C290.146 133.511 288.654 136.202 287.348 137.918ZM271.807 119.56L267.838 118.387C269.556 117.091 272.254 115.609 275.209 116.054C274.494 116.782 273.784 117.51 273.074 118.214C272.636 118.658 272.225 119.115 271.807 119.56ZM300.673 105.004L299.943 104.77C290.696 101.918 283.754 107.523 277.695 113.535C270.198 110.733 263.877 117.757 263.598 118.078L262 119.893L271.764 122.77L271.774 122.733C274.067 124.078 276.199 125.72 278.11 127.622C280.019 129.535 281.661 131.671 283.004 133.955L282.97 133.967L285.842 143.733L287.659 142.14C287.974 141.856 294.98 135.56 292.216 128.079C298.405 121.98 304.326 115.004 300.935 105.72L300.673 105.004Z" fill="#2A2C31" fill-opacity="0.2"/>
<path d="M274.459 134.214C273.963 134.523 272.027 135.165 269.89 135.782C270.513 133.967 271.242 131.942 271.623 131.177C271.662 131.103 271.747 130.93 272.132 130.868C272.78 130.757 273.68 131.078 274.186 131.584C274.663 132.053 274.946 132.831 274.873 133.473C274.812 133.992 274.547 134.165 274.459 134.214ZM277.938 133.819C278.118 132.239 277.517 130.547 276.369 129.399C275.16 128.189 273.254 127.559 271.636 127.819C270.379 128.029 269.395 128.732 268.86 129.806C268.034 131.461 266.239 136.942 266.038 137.56L265.164 140.251L267.895 139.535C269.005 139.251 274.621 137.757 276.096 136.831C277.137 136.177 277.791 135.115 277.938 133.819Z" fill="#2A2C31" fill-opacity="0.2"/>
<path d="M189 124.5C189 122.567 190.567 121 192.5 121H220.5C222.433 121 224 122.567 224 124.5C224 126.433 222.433 128 220.5 128H192.5C190.567 128 189 126.433 189 124.5Z" fill="#2A2C31" fill-opacity="0.2"/>
<path d="M134.015 127.856C133.107 128.733 132.205 129.609 131.335 130.474C131.159 130.659 130.984 130.819 130.806 130.992C129.507 129.004 127.995 127.14 126.293 125.436C124.589 123.745 122.727 122.227 120.738 120.93C120.909 120.745 121.082 120.572 121.257 120.399C121.983 119.671 122.71 118.93 123.44 118.177C129.865 111.609 135.946 105.399 144.283 107.51C146.742 115.572 140.554 121.547 134.015 127.856ZM133.348 137.918L132.174 133.93C132.625 133.511 133.077 133.103 133.516 132.659C134.224 131.955 134.957 131.251 135.691 130.535C136.146 133.511 134.654 136.202 133.348 137.918ZM117.807 119.56L113.838 118.387C115.556 117.091 118.254 115.609 121.209 116.054C120.494 116.782 119.784 117.51 119.074 118.214C118.636 118.658 118.225 119.115 117.807 119.56ZM146.673 105.004L145.943 104.77C136.696 101.918 129.754 107.523 123.695 113.535C116.198 110.733 109.877 117.757 109.598 118.078L108 119.893L117.764 122.77L117.774 122.733C120.067 124.078 122.199 125.72 124.11 127.622C126.019 129.535 127.661 131.671 129.004 133.955L128.97 133.967L131.842 143.733L133.659 142.14C133.974 141.856 140.98 135.56 138.216 128.079C144.405 121.98 150.326 115.004 146.935 105.72L146.673 105.004Z" fill="#2A2C31" fill-opacity="0.2"/>
<path d="M120.459 134.214C119.963 134.523 118.027 135.165 115.89 135.782C116.513 133.967 117.242 131.942 117.623 131.177C117.662 131.103 117.747 130.93 118.132 130.868C118.78 130.757 119.68 131.078 120.186 131.584C120.663 132.053 120.946 132.831 120.873 133.473C120.812 133.992 120.547 134.165 120.459 134.214ZM123.938 133.819C124.118 132.239 123.517 130.547 122.369 129.399C121.16 128.189 119.254 127.559 117.636 127.819C116.379 128.029 115.395 128.732 114.86 129.806C114.034 131.461 112.239 136.942 112.038 137.56L111.164 140.251L113.895 139.535C115.005 139.251 120.621 137.757 122.096 136.831C123.137 136.177 123.791 135.115 123.938 133.819Z" fill="#2A2C31" fill-opacity="0.2"/>
<path d="M34 124.5C34 122.567 35.567 121 37.5 121H65.5C67.433 121 69 122.567 69 124.5C69 126.433 67.433 128 65.5 128H37.5C35.567 128 34 126.433 34 124.5Z" fill="#2A2C31" fill-opacity="0.2"/>
<path d="M442.015 290.856C441.107 291.733 440.205 292.609 439.335 293.474C439.159 293.659 438.984 293.819 438.806 293.992C437.507 292.004 435.995 290.14 434.293 288.436C432.589 286.745 430.727 285.227 428.738 283.93C428.909 283.745 429.082 283.572 429.257 283.399C429.983 282.671 430.71 281.93 431.44 281.177C437.865 274.609 443.946 268.399 452.283 270.51C454.742 278.572 448.554 284.547 442.015 290.856ZM441.348 300.918L440.174 296.93C440.625 296.511 441.077 296.103 441.516 295.659C442.224 294.955 442.957 294.251 443.691 293.535C444.146 296.511 442.654 299.202 441.348 300.918ZM425.807 282.56L421.838 281.387C423.556 280.091 426.254 278.609 429.209 279.054C428.494 279.782 427.784 280.51 427.074 281.214C426.636 281.658 426.225 282.115 425.807 282.56ZM454.673 268.004L453.943 267.77C444.696 264.918 437.754 270.523 431.695 276.535C424.198 273.733 417.877 280.757 417.598 281.078L416 282.893L425.764 285.77L425.774 285.733C428.067 287.078 430.199 288.72 432.11 290.622C434.019 292.535 435.661 294.671 437.004 296.955L436.97 296.967L439.842 306.733L441.659 305.14C441.974 304.856 448.98 298.56 446.216 291.079C452.405 284.98 458.326 278.004 454.935 268.72L454.673 268.004Z" fill="#2A2C31" fill-opacity="0.2"/>
<path d="M428.459 297.214C427.963 297.523 426.027 298.165 423.89 298.782C424.513 296.967 425.242 294.942 425.623 294.177C425.662 294.103 425.747 293.93 426.132 293.868C426.78 293.757 427.68 294.078 428.186 294.584C428.663 295.053 428.946 295.831 428.873 296.473C428.812 296.992 428.547 297.165 428.459 297.214ZM431.938 296.819C432.118 295.239 431.517 293.547 430.369 292.399C429.16 291.189 427.254 290.559 425.636 290.819C424.379 291.029 423.395 291.732 422.86 292.806C422.034 294.461 420.239 299.942 420.038 300.56L419.164 303.251L421.895 302.535C423.005 302.251 428.621 300.757 430.096 299.831C431.137 299.177 431.791 298.115 431.938 296.819Z" fill="#2A2C31" fill-opacity="0.2"/>
<path d="M344 287.5C344 285.567 345.567 284 347.5 284H375.5C377.433 284 379 285.567 379 287.5C379 289.433 377.433 291 375.5 291H347.5C345.567 291 344 289.433 344 287.5Z" fill="#2A2C31" fill-opacity="0.2"/>
<path d="M288.015 289.856C287.107 290.733 286.205 291.609 285.335 292.474C285.159 292.659 284.984 292.819 284.806 292.992C283.507 291.004 281.995 289.14 280.293 287.436C278.589 285.745 276.727 284.227 274.738 282.93C274.909 282.745 275.082 282.572 275.257 282.399C275.983 281.671 276.71 280.93 277.44 280.177C283.865 273.609 289.946 267.399 298.283 269.51C300.742 277.572 294.554 283.547 288.015 289.856ZM287.348 299.918L286.174 295.93C286.625 295.511 287.077 295.103 287.516 294.659C288.224 293.955 288.957 293.251 289.691 292.535C290.146 295.511 288.654 298.202 287.348 299.918ZM271.807 281.56L267.838 280.387C269.556 279.091 272.254 277.609 275.209 278.054C274.494 278.782 273.784 279.51 273.074 280.214C272.636 280.658 272.225 281.115 271.807 281.56ZM300.673 267.004L299.943 266.77C290.696 263.918 283.754 269.523 277.695 275.535C270.198 272.733 263.877 279.757 263.598 280.078L262 281.893L271.764 284.77L271.774 284.733C274.067 286.078 276.199 287.72 278.11 289.622C280.019 291.535 281.661 293.671 283.004 295.955L282.97 295.967L285.842 305.733L287.659 304.14C287.974 303.856 294.98 297.56 292.216 290.079C298.405 283.98 304.326 277.004 300.935 267.72L300.673 267.004Z" fill="#2A2C31" fill-opacity="0.2"/>
<path d="M274.459 296.214C273.963 296.523 272.027 297.165 269.89 297.782C270.513 295.967 271.242 293.942 271.623 293.177C271.662 293.103 271.747 292.93 272.132 292.868C272.78 292.757 273.68 293.078 274.186 293.584C274.663 294.053 274.946 294.831 274.873 295.473C274.812 295.992 274.547 296.165 274.459 296.214ZM277.938 295.819C278.118 294.239 277.517 292.547 276.369 291.399C275.16 290.189 273.254 289.559 271.636 289.819C270.379 290.029 269.395 290.732 268.86 291.806C268.034 293.461 266.239 298.942 266.038 299.56L265.164 302.251L267.895 301.535C269.005 301.251 274.621 299.757 276.096 298.831C277.137 298.177 277.791 297.115 277.938 295.819Z" fill="#2A2C31" fill-opacity="0.2"/>
<path d="M189 286.5C189 284.567 190.567 283 192.5 283H220.5C222.433 283 224 284.567 224 286.5C224 288.433 222.433 290 220.5 290H192.5C190.567 290 189 288.433 189 286.5Z" fill="#2A2C31" fill-opacity="0.2"/>
<path d="M134.015 289.856C133.107 290.733 132.205 291.609 131.335 292.474C131.159 292.659 130.984 292.819 130.806 292.992C129.507 291.004 127.995 289.14 126.293 287.436C124.589 285.745 122.727 284.227 120.738 282.93C120.909 282.745 121.082 282.572 121.257 282.399C121.983 281.671 122.71 280.93 123.44 280.177C129.865 273.609 135.946 267.399 144.283 269.51C146.742 277.572 140.554 283.547 134.015 289.856ZM133.348 299.918L132.174 295.93C132.625 295.511 133.077 295.103 133.516 294.659C134.224 293.955 134.957 293.251 135.691 292.535C136.146 295.511 134.654 298.202 133.348 299.918ZM117.807 281.56L113.838 280.387C115.556 279.091 118.254 277.609 121.209 278.054C120.494 278.782 119.784 279.51 119.074 280.214C118.636 280.658 118.225 281.115 117.807 281.56ZM146.673 267.004L145.943 266.77C136.696 263.918 129.754 269.523 123.695 275.535C116.198 272.733 109.877 279.757 109.598 280.078L108 281.893L117.764 284.77L117.774 284.733C120.067 286.078 122.199 287.72 124.11 289.622C126.019 291.535 127.661 293.671 129.004 295.955L128.97 295.967L131.842 305.733L133.659 304.14C133.974 303.856 140.98 297.56 138.216 290.079C144.405 283.98 150.326 277.004 146.935 267.72L146.673 267.004Z" fill="#2A2C31" fill-opacity="0.2"/>
<path d="M120.459 296.214C119.963 296.523 118.027 297.165 115.89 297.782C116.513 295.967 117.242 293.942 117.623 293.177C117.662 293.103 117.747 292.93 118.132 292.868C118.78 292.757 119.68 293.078 120.186 293.584C120.663 294.053 120.946 294.831 120.873 295.473C120.812 295.992 120.547 296.165 120.459 296.214ZM123.938 295.819C124.118 294.239 123.517 292.547 122.369 291.399C121.16 290.189 119.254 289.559 117.636 289.819C116.379 290.029 115.395 290.732 114.86 291.806C114.034 293.461 112.239 298.942 112.038 299.56L111.164 302.251L113.895 301.535C115.005 301.251 120.621 299.757 122.096 298.831C123.137 298.177 123.791 297.115 123.938 295.819Z" fill="#2A2C31" fill-opacity="0.2"/>
<path d="M34 286.5C34 284.567 35.567 283 37.5 283H65.5C67.433 283 69 284.567 69 286.5C69 288.433 67.433 290 65.5 290H37.5C35.567 290 34 288.433 34 286.5Z" fill="#2A2C31" fill-opacity="0.2"/>
<path d="M421 44.5C421 42.567 422.567 41 424.5 41H452.5C454.433 41 456 42.567 456 44.5C456 46.433 454.433 48 452.5 48H424.5C422.567 48 421 46.433 421 44.5Z" fill="#2A2C31" fill-opacity="0.2"/>
<path d="M367.015 47.8561C366.107 48.7326 365.205 49.6093 364.335 50.4735C364.159 50.6587 363.984 50.8191 363.806 50.992C362.507 49.0043 360.995 47.1401 359.293 45.4364C357.589 43.745 355.727 42.2266 353.738 40.9303C353.909 40.7452 354.082 40.5721 354.257 40.3993C354.983 39.6709 355.71 38.9304 356.44 38.1773C362.865 31.6094 368.946 25.3993 377.283 27.5104C379.742 35.5722 373.554 41.5475 367.015 47.8561ZM366.348 57.918L365.174 53.9304C365.625 53.5106 366.077 53.1032 366.516 52.6587C367.224 51.955 367.957 51.2514 368.691 50.5353C369.146 53.5106 367.654 56.202 366.348 57.918ZM350.807 39.5598L346.838 38.3871C348.556 37.0908 351.254 35.6091 354.209 36.0536C353.494 36.782 352.784 37.5103 352.074 38.2141C351.636 38.6585 351.225 39.1154 350.807 39.5598ZM379.673 25.0042L378.943 24.7697C369.696 21.9179 362.754 27.5229 356.695 33.5353C349.198 30.7328 342.877 37.7574 342.598 38.0784L341 39.8932L350.764 42.7698L350.774 42.7328C353.067 44.0784 355.199 45.7204 357.11 47.6216C359.019 49.5352 360.661 51.6708 362.004 53.9548L361.97 53.9672L364.842 63.7328L366.659 62.1401C366.974 61.8562 373.98 55.56 371.216 48.0785C377.405 41.9798 383.326 35.0043 379.935 25.7204L379.673 25.0042Z" fill="#2A2C31" fill-opacity="0.2"/>
<path d="M353.459 54.214C352.963 54.5226 351.027 55.1646 348.89 55.7819C349.513 53.9671 350.242 51.9421 350.623 51.1767C350.662 51.1026 350.747 50.9298 351.132 50.868C351.78 50.7569 352.68 51.078 353.186 51.5842C353.663 52.0533 353.946 52.8311 353.873 53.4731C353.812 53.9916 353.547 54.1646 353.459 54.214ZM356.938 53.8188C357.118 52.2386 356.517 50.5471 355.369 49.399C354.16 48.1891 352.254 47.5594 350.636 47.8187C349.379 48.0286 348.395 48.7324 347.86 49.8065C347.034 51.4608 345.239 56.9423 345.038 57.5596L344.164 60.2509L346.895 59.5347C348.005 59.2508 353.621 57.757 355.096 56.8311C356.137 56.1768 356.791 55.1151 356.938 53.8188Z" fill="#2A2C31" fill-opacity="0.2"/>
<path d="M266 43.5C266 41.567 267.567 40 269.5 40H297.5C299.433 40 301 41.567 301 43.5C301 45.433 299.433 47 297.5 47H269.5C267.567 47 266 45.433 266 43.5Z" fill="#2A2C31" fill-opacity="0.2"/>
<path d="M212.015 46.8561C211.107 47.7326 210.205 48.6093 209.335 49.4735C209.159 49.6587 208.984 49.8191 208.806 49.992C207.507 48.0043 205.995 46.1401 204.293 44.4364C202.589 42.745 200.727 41.2266 198.738 39.9303C198.909 39.7452 199.082 39.5721 199.257 39.3993C199.983 38.6709 200.71 37.9304 201.44 37.1773C207.865 30.6094 213.946 24.3993 222.283 26.5104C224.742 34.5722 218.554 40.5475 212.015 46.8561ZM211.348 56.918L210.174 52.9304C210.625 52.5106 211.077 52.1032 211.516 51.6587C212.224 50.955 212.957 50.2514 213.691 49.5353C214.146 52.5106 212.654 55.202 211.348 56.918ZM195.807 38.5598L191.838 37.3871C193.556 36.0908 196.254 34.6091 199.209 35.0536C198.494 35.782 197.784 36.5103 197.074 37.2141C196.636 37.6585 196.225 38.1154 195.807 38.5598ZM224.673 24.0042L223.943 23.7697C214.696 20.9179 207.754 26.5229 201.695 32.5353C194.198 29.7328 187.877 36.7574 187.598 37.0784L186 38.8932L195.764 41.7698L195.774 41.7328C198.067 43.0784 200.199 44.7204 202.11 46.6216C204.019 48.5352 205.661 50.6708 207.004 52.9548L206.97 52.9672L209.842 62.7328L211.659 61.1401C211.974 60.8562 218.98 54.56 216.216 47.0785C222.405 40.9798 228.326 34.0043 224.935 24.7204L224.673 24.0042Z" fill="#2A2C31" fill-opacity="0.2"/>
<path d="M198.459 53.214C197.963 53.5226 196.027 54.1646 193.89 54.7819C194.513 52.9671 195.242 50.9421 195.623 50.1767C195.662 50.1026 195.747 49.9298 196.132 49.868C196.78 49.7569 197.68 50.078 198.186 50.5842C198.663 51.0533 198.946 51.8311 198.873 52.4731C198.812 52.9916 198.547 53.1646 198.459 53.214ZM201.938 52.8188C202.118 51.2386 201.517 49.5471 200.369 48.399C199.16 47.1891 197.254 46.5594 195.636 46.8187C194.379 47.0286 193.395 47.7324 192.86 48.8065C192.034 50.4608 190.239 55.9423 190.038 56.5596L189.164 59.2509L191.895 58.5347C193.005 58.2508 198.621 56.757 200.096 55.8311C201.137 55.1768 201.791 54.1151 201.938 52.8188Z" fill="#2A2C31" fill-opacity="0.2"/>
<path d="M111 43.5C111 41.567 112.567 40 114.5 40H142.5C144.433 40 146 41.567 146 43.5C146 45.433 144.433 47 142.5 47H114.5C112.567 47 111 45.433 111 43.5Z" fill="#2A2C31" fill-opacity="0.2"/>
<path d="M57.0149 46.8561C56.1075 47.7326 55.205 48.6093 54.3346 49.4735C54.1593 49.6587 53.984 49.8191 53.8062 49.992C52.5075 48.0043 50.9951 46.1401 49.2927 44.4364C47.5889 42.745 45.7272 41.2266 43.7383 39.9303C43.9087 39.7452 44.0816 39.5721 44.2569 39.3993C44.9828 38.6709 45.7099 37.9304 46.4395 37.1773C52.8654 30.6094 58.9458 24.3993 67.2828 26.5104C69.7421 34.5722 63.5544 40.5475 57.0149 46.8561ZM56.3482 56.918L55.1741 52.9304C55.6247 52.5106 56.0766 52.1032 56.5161 51.6587C57.2235 50.955 57.9568 50.2514 58.6914 49.5353C59.1457 52.5106 57.6543 55.202 56.3482 56.918ZM40.8075 38.5598L36.8383 37.3871C38.5556 36.0908 41.2544 34.6091 44.2087 35.0536C43.4939 35.782 42.784 36.5103 42.0741 37.2141C41.6359 37.6585 41.2248 38.1154 40.8075 38.5598ZM69.6729 24.0042L68.9433 23.7697C59.6964 20.9179 52.7544 26.5229 46.6951 32.5353C39.1976 29.7328 32.8766 36.7574 32.5976 37.0784L31 38.8932L40.7642 41.7698L40.7741 41.7328C43.0667 43.0784 45.1988 44.7204 47.1099 46.6216C49.0186 48.5352 50.6605 50.6708 52.0037 52.9548L51.9704 52.9672L54.842 62.7328L56.6593 61.1401C56.9741 60.8562 63.9803 54.56 61.2161 47.0785C67.405 40.9798 73.326 34.0043 69.9346 24.7204L69.6729 24.0042Z" fill="#2A2C31" fill-opacity="0.2"/>
<path d="M43.4591 53.214C42.9628 53.5226 41.027 54.1646 38.89 54.7819C39.5134 52.9671 40.2418 50.9421 40.6233 50.1767C40.6616 50.1026 40.7468 49.9298 41.1319 49.868C41.7801 49.7569 42.6801 50.078 43.1863 50.5842C43.6628 51.0533 43.9456 51.8311 43.8727 52.4731C43.8122 52.9916 43.5468 53.1646 43.4591 53.214ZM46.9381 52.8188C47.1184 51.2386 46.5171 49.5471 45.369 48.399C44.1603 47.1891 42.2542 46.5594 40.6357 46.8187C39.3789 47.0286 38.395 47.7324 37.8604 48.8065C37.0345 50.4608 35.2394 55.9423 35.0381 56.5596L34.1641 59.2509L36.8949 58.5347C38.0048 58.2508 43.6208 56.757 45.0961 55.8311C46.1369 55.1768 46.7912 54.1151 46.9381 52.8188Z" fill="#2A2C31" fill-opacity="0.2"/>
</svg>
